G04 DipTrace 3.2.0.1*
G04 bottom.gbl*
%MOIN*%
G04 #@! TF.FileFunction,Copper,L2,Bot*
G04 #@! TF.Part,Single*
G04 #@! TA.AperFunction,Conductor*
%ADD13C,0.011811*%
%ADD14C,0.007874*%
G04 #@! TA.AperFunction,ComponentPad*
%ADD16C,0.059055*%
%ADD17R,0.059055X0.059055*%
%ADD18C,0.070866*%
%ADD19R,0.066929X0.066929*%
%ADD20C,0.066929*%
G04 #@! TA.AperFunction,ViaPad*
%ADD22C,0.027559*%
%FSLAX26Y26*%
G04*
G70*
G90*
G75*
G01*
G04 Bottom*
%LPD*%
X3581202Y1281201D2*
D13*
X3773819D1*
X3799781Y1307163D1*
Y2198012D1*
X4118702Y2393701D2*
X4018702D1*
X1818702Y1072051D2*
Y493701D1*
X3581202Y1123228D2*
X3550100Y1092126D1*
X2969789D1*
X3081202Y1281201D2*
D14*
Y1371756D1*
X3100887Y1391441D1*
X3728545D1*
X3748230Y1411126D1*
Y2274016D1*
X3767915Y2293701D1*
X4018702D1*
X1881202Y1281201D2*
Y1032685D1*
X3338049Y1332386D2*
X3748230D1*
X3767915Y1352071D1*
Y2223228D1*
X3787600Y2242913D1*
X4067915D1*
X4118702Y2293701D1*
X2881202Y1281201D2*
X2940749Y1221654D1*
X3807285D1*
X3826970Y1241339D1*
Y2174016D1*
X3846655Y2193701D1*
X4018702D1*
X1681202Y1281201D2*
Y1111421D1*
X2332387Y1190650D2*
Y1062598D1*
X2352072Y1042913D1*
X4148230D1*
X4167915Y1062598D1*
Y2144488D1*
X4118702Y2193701D1*
X4018702Y2093701D2*
X3866340D1*
X3846655Y2074016D1*
Y1221654D1*
X3826970Y1201969D1*
X2719100D1*
X2700891Y1220177D1*
X1610734D2*
X1542226D1*
X1481202Y1281201D1*
X2700891Y1220177D2*
Y1218701D1*
X2693702D1*
X2681202Y1231201D1*
Y1281201D1*
X2910734Y1162598D2*
X2600887D1*
X2581202Y1182283D1*
Y1281201D1*
X3691442Y1420972D2*
Y1857677D1*
X3681600Y1867520D1*
Y2242913D1*
X3051675Y1152756D2*
X3876182D1*
X3895867Y1172441D1*
Y1244492D1*
X2581202Y1281201D2*
X2530017Y1332386D1*
X1432387D1*
X1381202Y1281201D1*
X4018702Y1993701D2*
X3886025D1*
X3866340Y1974016D1*
Y1201969D1*
X3846655Y1182283D1*
X3002340D1*
X2943289Y1123232D1*
X2530419D1*
X2500891Y1152760D1*
X2461521D1*
Y1182287D1*
X2481202Y1201969D1*
Y1281201D1*
X1724356Y1420969D2*
X1120970D1*
X1032387Y1332386D1*
X2581202Y1481201D2*
Y1942909D1*
X2712702Y1642913D2*
X2681202Y1611413D1*
Y1481201D1*
Y1411126D1*
X2661517Y1391441D1*
X1191442D1*
X1081202Y1281201D1*
X2781202Y1481201D2*
Y1570933D1*
X2779552Y1572583D1*
Y1672441D1*
X2659946D1*
X932387Y1561913D2*
X649706D1*
X630021Y1542228D1*
Y1411126D1*
X649706Y1391441D1*
X870962D1*
X981202Y1281201D1*
X2659946Y1672441D2*
Y1762701D1*
X1602860Y1361913D2*
X2761915D1*
X2881202Y1481201D1*
Y1672441D1*
X2900887Y1692126D1*
X3009450D1*
X781202Y1281201D2*
Y1361913D1*
X2981202Y1481201D2*
Y1605110D1*
X3069793Y1693701D1*
X2981202Y1361913D2*
Y1481201D1*
X3109159Y1561913D2*
Y1532386D1*
X3081202D1*
Y1481201D1*
X1024356Y1532386D2*
X932387D1*
X881202Y1481201D1*
X3181202D2*
Y1833071D1*
X2113005Y2031496D2*
X1398041D1*
X1378356Y2011811D1*
Y1571756D1*
X1358671Y1552071D1*
X1152072D1*
X1081202Y1481201D1*
X3718702Y1911811D2*
Y2393701D1*
X3925395Y1911811D2*
Y1082283D1*
X3905710Y1062598D1*
X2400891D1*
X2381202Y1082287D1*
Y1281201D1*
Y1481201D2*
Y1811913D1*
X2381206D1*
X2618702Y883866D2*
Y493701D1*
X1981202Y1281201D2*
Y552756D1*
X3181202Y1281201D2*
Y1361913D1*
X3024356Y1420969D2*
Y1361913D1*
X2624356Y1420969D2*
X1941434D1*
X1881202Y1481201D1*
X2083482Y1933661D2*
X1781202Y1631382D1*
Y1481201D1*
X3430419Y1420969D2*
X3612702D1*
X3632387Y1440654D1*
Y1972441D1*
X3281202Y1281201D2*
Y1342228D1*
X3300887Y1361913D1*
X3430419D1*
X1705915Y1879134D2*
X1581202Y1754421D1*
Y1481201D1*
X4018702Y1093701D2*
X4067915Y1142913D1*
Y2142913D1*
X3581202Y1481201D2*
Y1952752D1*
X3561517Y1972437D1*
X1500890D1*
X1481202Y1952749D1*
Y1481201D1*
X3661915Y1532386D2*
Y2001969D1*
X1417726D1*
X1398041Y1982283D1*
Y1532386D1*
X1381202D1*
Y1481201D1*
X3895867Y1872441D2*
Y1293701D1*
X2610734Y1561913D2*
Y1864764D1*
X2630419Y1884449D1*
X3132682D1*
X3144690Y1872441D1*
X3300891D1*
Y1833075D1*
X3281202Y1813386D1*
Y1481201D1*
X681202Y1281201D2*
D13*
X588682Y1373720D1*
Y1569787D1*
X612304Y1593409D1*
X1333080D1*
X1356702Y1617031D1*
Y2393701D1*
X1918702Y493701D2*
X2018702D1*
X3631202Y818701D2*
X3893702D1*
X4018702Y693701D1*
X993702Y839472D2*
Y618701D1*
X2209045Y818705D2*
Y881705D1*
X2181202Y909547D1*
Y1281201D1*
X2018702Y493701D2*
X2069883Y544882D1*
X2185423D1*
X2209045Y568504D1*
Y818705D1*
X1281202Y839472D2*
X1008549Y1112126D1*
X681202D1*
X1281202Y618701D2*
Y839472D1*
X993702Y618701D2*
X1064568Y547835D1*
X1210336D1*
X1281202Y618701D1*
X2251675Y983346D2*
D14*
X2318702Y916319D1*
Y493701D1*
X2481202Y1481201D2*
Y1841441D1*
X2281202Y1281201D2*
Y1032559D1*
X2300887Y1012874D1*
X2799017D1*
X2818702Y993189D1*
Y493701D1*
X2281202Y1481201D2*
Y1782386D1*
X2281206D1*
X2518702Y953819D2*
Y493701D1*
X3431202Y718701D2*
X3480419Y767917D1*
Y923228D1*
X3500104Y942913D1*
X4069490D1*
X4118702Y893701D1*
X2081202Y1281201D2*
Y597051D1*
X1981202Y1481201D2*
Y1624906D1*
X1981206D1*
X2418702Y493701D2*
X2364450Y439449D1*
X1346163D1*
X1326478Y459134D1*
Y1121969D1*
X1306793Y1141654D1*
X586714D1*
X567029Y1161339D1*
Y1595378D1*
X586714Y1615063D1*
X1260930D1*
Y1624906D1*
X1181202Y840945D2*
X939549Y1082598D1*
X547343D1*
X527659Y1102282D1*
Y1615063D1*
X547344Y1634748D1*
X1086230D1*
X1105915Y1654433D1*
Y2423228D1*
X1125600Y2442913D1*
X1507490D1*
X1556702Y2393701D1*
X537505Y1033382D2*
X901265D1*
X1093702Y840945D1*
X818115Y2083402D2*
Y1664276D1*
D22*
X3799781Y2198012D3*
X1818702Y1072051D3*
X2969789Y1092126D3*
X3581202Y1123228D3*
X1881202Y1032685D3*
X3338049Y1332386D3*
X1681202Y1111421D3*
X2332387Y1190650D3*
X1610734Y1220177D3*
X2700891D3*
X3681600Y2242913D3*
X3691442Y1420972D3*
X3895867Y1244492D3*
X3051675Y1152756D3*
X2910734Y1162598D3*
X2461521Y1152760D3*
X1032387Y1332386D3*
X1724356Y1420969D3*
X2581202Y1942909D3*
X2712702Y1642913D3*
X2659946Y1672441D3*
Y1762701D3*
X932387Y1561913D3*
X3009450Y1692126D3*
X1602860Y1361913D3*
X3069793Y1693701D3*
X2981202Y1361913D3*
X781202D3*
X1024356Y1532386D3*
X3109159Y1561913D3*
X3181202Y1833071D3*
X2113005Y2031496D3*
X3718702Y1911811D3*
X3925395D3*
X2381206Y1811913D3*
X2618702Y883866D3*
X1981202Y552756D3*
X3181202Y1361913D3*
X3024356D3*
Y1420969D3*
X2624356D3*
X2083482Y1933661D3*
X3632387Y1972441D3*
X3430419Y1420969D3*
Y1361913D3*
X1705915Y1879134D3*
X4067915Y2142913D3*
X3661915Y1532386D3*
X3895867Y1293701D3*
Y1872441D3*
X2610734Y1561913D3*
X3300891Y1872441D3*
X2209045Y818705D3*
X681202Y1112126D3*
X993702Y839472D3*
X1281202D3*
X2251675Y983346D3*
X2481202Y1841441D3*
X2281206Y1782386D3*
X2518702Y953819D3*
X2081202Y597051D3*
X1981206Y1624906D3*
X1260930D3*
X1181202Y840945D3*
X1093702D3*
X537505Y1033382D3*
X818115Y1664276D3*
Y2083402D3*
D16*
X1093702Y618701D3*
D17*
X993702D3*
D16*
X1181202D3*
D17*
X1281202D3*
D18*
X3581202Y1481201D3*
Y1281201D3*
X3481202Y1481201D3*
Y1281201D3*
X3081202Y1481201D3*
Y1281201D3*
X2981202Y1481201D3*
Y1281201D3*
X2881202Y1481201D3*
Y1281201D3*
X2581202D3*
Y1481201D3*
X2481202D3*
Y1281201D3*
X2081202D3*
X1981202D3*
X1881202D3*
X1781202D3*
X1681202D3*
X681202D3*
X781202D3*
X881202D3*
X981202D3*
X1081202D3*
X1181202D3*
X1281202D3*
X1381202D3*
X1481202D3*
X1581202D3*
X2081202Y1481201D3*
X1981202D3*
X1881202D3*
X1781202D3*
X1681202D3*
X1581202D3*
X1481202D3*
X1381202D3*
X1281202D3*
X1181202D3*
X1081202D3*
X981202D3*
X881202D3*
X781202D3*
X681202D3*
X2181202Y1281201D3*
Y1481201D3*
X2281202D3*
Y1281201D3*
X2381202Y1481201D3*
Y1281201D3*
X2681202D3*
Y1481201D3*
X2781202D3*
Y1281201D3*
X3181202D3*
Y1481201D3*
X3281202Y1281201D3*
Y1481201D3*
X3381202Y1281201D3*
Y1481201D3*
D19*
X3231202Y718701D3*
D20*
Y818701D3*
X3331202Y718701D3*
Y818701D3*
X3431202Y718701D3*
Y818701D3*
X3531202Y718701D3*
Y818701D3*
X3631202Y718701D3*
Y818701D3*
X4118702Y693701D3*
Y793701D3*
Y893701D3*
Y993701D3*
Y1093701D3*
Y1193701D3*
Y1293701D3*
Y1393701D3*
Y1493701D3*
Y1593701D3*
Y1693701D3*
Y1793701D3*
Y1893701D3*
Y1993701D3*
Y2093701D3*
Y2193701D3*
Y2293701D3*
X4018702Y2393701D3*
Y693701D3*
Y793701D3*
Y893701D3*
Y993701D3*
Y1093701D3*
Y1193701D3*
Y1293701D3*
Y1393701D3*
Y1493701D3*
Y1593701D3*
Y1693701D3*
Y1793701D3*
Y1893701D3*
Y1993701D3*
Y2093701D3*
Y2193701D3*
Y2293701D3*
X4118702Y2393701D3*
X1918702Y493701D3*
X1718702D3*
X1618702D3*
X1518702D3*
X1418702D3*
X2818702D3*
X2718702D3*
X2618702D3*
X2518702D3*
X2418702D3*
X2318702D3*
X1956702Y2393701D3*
X1856702D3*
X1756702D3*
X1656702D3*
X1556702D3*
X1456702D3*
X1356702D3*
X1255702D3*
X1156702D3*
X1056702D3*
X2818702D3*
X2718702D3*
X2618702D3*
X2518702D3*
X2418702D3*
X2318702D3*
X2218702D3*
X2118702D3*
X3018702D3*
X3118702D3*
X3218702D3*
X3318702D3*
X3418702D3*
X3518702D3*
X3618702D3*
X3718702D3*
X2918702Y493701D3*
X3018702D3*
X3218702D3*
X3318702D3*
X3418702D3*
X3518702D3*
X3618702D3*
X3718702D3*
X3818702D3*
X3918702D3*
X1818702D3*
X2118702D3*
X2018702D3*
M02*
