M48
INCH
T01C0.0118
T02C0.035
T03C0.038
T04C0.0433
T05C0.125
%
T01
X+037998Y+021980
X+036816Y+022429
X+036324Y+019724
X+037187Y+019118
X+038959Y+018724
X+039254Y+019118
X+040679Y+021429
X+036619Y+015324
X+036914Y+014210
X+038959Y+012937
X+038959Y+012445
X+035812Y+011232
X+034304Y+013619
X+034304Y+014210
X+033380Y+013324
X+031812Y+013619
X+030244Y+013619
X+029812Y+013619
X+030244Y+014210
X+031092Y+015619
X+030698Y+016937
X+030095Y+016921
X+031812Y+018331
X+033009Y+018724
X+027127Y+016429
X+026599Y+016724
X+026599Y+017627
X+024812Y+018414
X+023812Y+018119
X+022812Y+017824
X+020835Y+019337
X+021130Y+020315
X+019812Y+016249
X+017244Y+014210
X+016029Y+013619
X+016107Y+012202
X+016812Y+011114
X+018187Y+010721
X+018812Y+010327
X+022517Y+009833
X+022090Y+008187
X+020812Y+005971
X+019812Y+005528
X+025187Y+009538
X+026187Y+008839
X+024615Y+011528
X+023324Y+011906
X+027009Y+012202
X+026244Y+014210
X+026107Y+015619
X+025812Y+019429
X+029107Y+011626
X+029698Y+010921
X+030517Y+011528
X+017059Y+018791
X+012609Y+016249
X+010244Y+015324
X+009324Y+015619
X+008181Y+016643
X+007812Y+013619
X+010324Y+013324
X+006812Y+011121
X+005375Y+010334
X+009937Y+008395
X+010937Y+008409
X+011812Y+008409
X+012812Y+008395
X+008181Y+020834
T02
X+010937Y+006187
X+011812Y+006187
X+012812Y+006187
X+009937Y+006187
T03
X+035812Y+014812
X+034812Y+014812
X+033812Y+014812
X+032812Y+014812
X+031812Y+014812
X+030812Y+014812
X+029812Y+014812
X+028812Y+014812
X+027812Y+014812
X+026812Y+014812
X+025812Y+014812
X+024812Y+014812
X+023812Y+014812
X+022812Y+014812
X+021812Y+014812
X+020812Y+014812
X+019812Y+014812
X+018812Y+014812
X+017812Y+014812
X+016812Y+014812
X+015812Y+014812
X+014812Y+014812
X+013812Y+014812
X+012812Y+014812
X+011812Y+014812
X+010812Y+014812
X+009812Y+014812
X+008812Y+014812
X+007812Y+014812
X+006812Y+014812
X+006812Y+012812
X+007812Y+012812
X+008812Y+012812
X+009812Y+012812
X+010812Y+012812
X+011812Y+012812
X+012812Y+012812
X+013812Y+012812
X+014812Y+012812
X+015812Y+012812
X+016812Y+012812
X+017812Y+012812
X+018812Y+012812
X+019812Y+012812
X+020812Y+012812
X+021812Y+012812
X+022812Y+012812
X+023812Y+012812
X+024812Y+012812
X+025812Y+012812
X+026812Y+012812
X+027812Y+012812
X+028812Y+012812
X+029812Y+012812
X+030812Y+012812
X+031812Y+012812
X+032812Y+012812
X+033812Y+012812
X+034812Y+012812
X+035812Y+012812
X+040187Y+012937
X+041187Y+012937
X+041187Y+013937
X+041187Y+014937
X+041187Y+015937
X+040187Y+015937
X+040187Y+014937
X+040187Y+013937
X+040187Y+011937
X+041187Y+011937
X+041187Y+010937
X+041187Y+009937
X+040187Y+009937
X+040187Y+010937
X+040187Y+008937
X+040187Y+007937
X+040187Y+006937
X+041187Y+006937
X+041187Y+007937
X+041187Y+008937
X+039187Y+004937
X+038187Y+004937
X+037187Y+004937
X+036187Y+004937
X+035187Y+004937
X+034187Y+004937
X+033187Y+004937
X+032187Y+004937
X+030187Y+004937
X+029187Y+004937
X+028187Y+004937
X+027187Y+004937
X+026187Y+004937
X+025187Y+004937
X+024187Y+004937
X+023187Y+004937
X+021187Y+004937
X+020187Y+004937
X+019187Y+004937
X+018187Y+004937
X+017187Y+004937
X+016187Y+004937
X+015187Y+004937
X+014187Y+004937
X+032312Y+008187
X+033312Y+008187
X+034312Y+008187
X+034312Y+007187
X+033312Y+007187
X+035312Y+007187
X+036312Y+007187
X+036312Y+008187
X+035312Y+008187
X+040187Y+016937
X+041187Y+016937
X+041187Y+017937
X+040187Y+017937
X+040187Y+018937
X+041187Y+018937
X+041187Y+019937
X+041187Y+020937
X+040187Y+020937
X+040187Y+021937
X+041187Y+021937
X+041187Y+022937
X+040187Y+022937
X+040187Y+023937
X+041187Y+023937
X+037187Y+023937
X+036187Y+023937
X+035187Y+023937
X+034187Y+023937
X+033187Y+023937
X+032187Y+023937
X+031187Y+023937
X+030187Y+023937
X+028187Y+023937
X+027187Y+023937
X+026187Y+023937
X+025187Y+023937
X+024187Y+023937
X+023187Y+023937
X+022187Y+023937
X+021187Y+023937
X+019567Y+023937
X+018567Y+023937
X+017567Y+023937
X+016567Y+023937
X+015567Y+023937
X+014567Y+023937
X+013567Y+023937
X+012557Y+023937
X+011567Y+023937
X+010567Y+023937
X+040187Y+019937
T04
X+032312Y+007187
T05
X+008687Y+004937
X+009187Y+023937
X+029187Y+017937
X+029187Y+006937
X+041187Y+004937
X+038687Y+023937
T00
M30
