G04 DipTrace 3.2.0.1*
G04 top_silk.gto*
%MOIN*%
G04 #@! TF.FileFunction,Legend,Top*
G04 #@! TF.Part,Single*
%ADD10C,0.009843*%
%ADD14C,0.007874*%
%ADD40C,0.004632*%
%ADD41C,0.00772*%
%ADD42C,0.013895*%
%ADD44C,0.012351*%
%ADD45C,0.006176*%
%FSLAX26Y26*%
G04*
G70*
G90*
G75*
G01*
G04 TopSilk*
%LPD*%
X1304825Y830807D2*
D10*
X1257580D1*
X1017325D2*
X970080D1*
X1003143Y666701D2*
G02X1085375Y665567I40474J-47136D01*
G01*
X1003143Y570701D2*
G03X1085375Y571835I40474J47136D01*
G01*
X1271761Y570701D2*
G02X1189530Y571835I-40474J47136D01*
G01*
X1271761Y666701D2*
G03X1189530Y665567I-40474J-47136D01*
G01*
X3681154Y1431234D2*
Y1331196D1*
G36*
X3168831Y1131178D2*
X3281268D1*
Y1024961D1*
X3168831D1*
Y1131178D1*
G37*
X581467Y1431175D2*
D10*
Y1331314D1*
X3681154Y1331196D2*
X581467Y1331314D1*
X3681154Y1431234D2*
X581467Y1431175D1*
G36*
X981027Y1131178D2*
X1093464D1*
Y1024961D1*
X981027D1*
Y1131178D1*
G37*
G36*
X931163Y1062446D2*
X1043601Y974942D1*
X1143654Y1062446D1*
X931163D1*
G37*
G36*
X3118641D2*
X3231078Y974942D1*
X3331131Y1062446D1*
X3118641D1*
G37*
X503249Y1568995D2*
D10*
X3762304D1*
Y1194207D1*
X503249D1*
Y1568995D1*
X3306303Y867251D2*
D14*
X3356033D1*
X3381148Y842262D1*
Y792065D1*
X3356033Y767495D1*
X3306303D1*
X3280838Y792484D1*
Y842681D1*
X3305903Y867251D1*
X3206343D2*
X3256073D1*
X3281138Y842262D1*
Y792065D1*
X3256073Y767495D1*
X3206343D1*
X3180827Y792484D1*
Y842681D1*
X3205892Y867251D1*
X3406313D2*
X3456043D1*
X3481108Y842262D1*
Y792065D1*
X3456043Y767495D1*
X3406313D1*
X3380848Y792484D1*
Y842681D1*
X3405913Y867251D1*
X3506323D2*
X3556053D1*
X3581118Y842262D1*
Y792065D1*
X3556053Y767495D1*
X3506323D1*
X3480808Y792484D1*
Y842681D1*
X3505923Y867251D1*
X3606333D2*
X3656063D1*
X3681128Y842262D1*
Y792065D1*
X3656063Y767495D1*
X3606333D1*
X3580818Y792484D1*
Y842681D1*
X3605883Y867251D1*
X3206343Y767255D2*
X3256073D1*
X3281138Y742267D1*
Y692069D1*
X3256073Y667500D1*
X3206343D1*
X3180827Y692489D1*
Y742686D1*
X3205892Y767255D1*
X3306303D2*
X3356033D1*
X3381148Y742267D1*
Y692069D1*
X3356033Y667500D1*
X3306303D1*
X3280838Y692489D1*
Y742686D1*
X3305903Y767255D1*
X3406313D2*
X3456043D1*
X3481108Y742267D1*
Y692069D1*
X3456043Y667500D1*
X3406313D1*
X3380848Y692489D1*
Y742686D1*
X3405913Y767255D1*
X3506323D2*
X3556053D1*
X3581118Y742267D1*
Y692069D1*
X3556053Y667500D1*
X3506323D1*
X3480808Y692489D1*
Y742686D1*
X3505923Y767255D1*
X3606333D2*
X3656063D1*
X3681128Y742267D1*
Y692069D1*
X3656063Y667500D1*
X3606333D1*
X3580818Y692489D1*
Y742686D1*
X3605883Y767255D1*
X1494152Y542381D2*
X1543877D1*
X1568952Y517181D1*
Y467201D1*
X1544302Y442211D1*
X1494152D1*
X1469077Y467621D1*
Y517601D1*
X1493727Y542381D1*
X1393852D2*
X1444002D1*
X1468652Y517181D1*
Y467201D1*
X1444427Y442211D1*
X1393852D1*
X1369202Y467621D1*
Y517601D1*
X1393852Y542381D1*
X1131202Y2442251D2*
X1180927D1*
X1206427Y2417261D1*
Y2367071D1*
X1181352Y2342501D1*
X1131202D1*
X1106552Y2367491D1*
Y2417681D1*
X1131202Y2442251D1*
X1031327D2*
X1081052D1*
X1106127Y2417261D1*
Y2367071D1*
X1081477Y2342501D1*
X1031327D1*
X1006252Y2367491D1*
Y2417681D1*
X1030902Y2442251D1*
X4093877D2*
X4143177D1*
X4168677Y2417261D1*
Y2367071D1*
X4143602Y2342501D1*
X4093877D1*
X4068377Y2367491D1*
Y2417681D1*
X4093452Y2442251D1*
X1231502D2*
X1280802D1*
X1306302Y2417261D1*
Y2367071D1*
X1281227Y2342501D1*
X1231502D1*
X1206427Y2367491D1*
Y2417681D1*
X1231077Y2442251D1*
X1331377D2*
X1381102D1*
X1406602Y2417261D1*
Y2367071D1*
X1381527Y2342501D1*
X1331377D1*
X1306302Y2367491D1*
Y2417681D1*
X1331377Y2442251D1*
X1431252D2*
X1480977D1*
X1506052Y2417261D1*
Y2367071D1*
X1481402Y2342501D1*
X1431252D1*
X1406602Y2367491D1*
Y2417681D1*
X1430827Y2442251D1*
X1531552D2*
X1581277D1*
X1606352Y2417261D1*
Y2367071D1*
X1581277Y2342501D1*
X1531552D1*
X1506052Y2367491D1*
Y2417681D1*
X1531127Y2442251D1*
X1631427D2*
X1680727D1*
X1706227Y2417261D1*
Y2367071D1*
X1681577Y2342501D1*
X1631427D1*
X1606352Y2367491D1*
Y2417681D1*
X1631002Y2442251D1*
X1731727D2*
X1781027D1*
X1806527Y2417261D1*
Y2367071D1*
X1781452Y2342501D1*
X1731727D1*
X1706227Y2367491D1*
Y2417681D1*
X1731302Y2442251D1*
X1831177D2*
X1880902D1*
X1906402Y2417261D1*
Y2367071D1*
X1881752Y2342501D1*
X1831177D1*
X1806527Y2367491D1*
Y2417681D1*
X1831177Y2442251D1*
X1931477D2*
X1981202D1*
X2006277Y2417261D1*
Y2367071D1*
X1981627Y2342501D1*
X1931477D1*
X1906402Y2367491D1*
Y2417681D1*
X1931052Y2442251D1*
X2093827D2*
X2143552D1*
X2168627Y2417261D1*
Y2367071D1*
X2143552Y2342501D1*
X2093827D1*
X2068327Y2367491D1*
Y2417681D1*
X2093402Y2442251D1*
X3294027Y542381D2*
X3343752D1*
X3368827Y517181D1*
Y467201D1*
X3344177Y442211D1*
X3294027D1*
X3268952Y467621D1*
Y517601D1*
X3293602Y542381D1*
X3394327D2*
X3443627D1*
X3468702Y517181D1*
Y467201D1*
X3444052Y442211D1*
X3394327D1*
X3368827Y467621D1*
Y517601D1*
X3393477Y542381D1*
X3494202D2*
X3543502D1*
X3569002Y517181D1*
Y467201D1*
X3543927Y442211D1*
X3494202D1*
X3468702Y467621D1*
Y517601D1*
X3493777Y542381D1*
X3594077D2*
X3643802D1*
X3668877Y517181D1*
Y467201D1*
X3644227Y442211D1*
X3594077D1*
X3569002Y467621D1*
Y517601D1*
X3593652Y542381D1*
X3693952D2*
X3743677D1*
X3768752Y517181D1*
Y467201D1*
X3744102Y442211D1*
X3693952D1*
X3668877Y467621D1*
Y517601D1*
X3693527Y542381D1*
X3794252D2*
X3843977D1*
X3868627Y517181D1*
Y467201D1*
X3843977Y442211D1*
X3794252D1*
X3768752Y467621D1*
Y517601D1*
X3793827Y542381D1*
X3894127D2*
X3943427D1*
X3968927Y517181D1*
Y467201D1*
X3943852Y442211D1*
X3894127D1*
X3868627Y467621D1*
Y517601D1*
X3893702Y542381D1*
X2394302D2*
X2444027D1*
X2468677Y517181D1*
Y467201D1*
X2444027Y442211D1*
X2394302D1*
X2368802Y467621D1*
Y517601D1*
X2393452Y542381D1*
X2494177D2*
X2543902D1*
X2568977Y517181D1*
Y467201D1*
X2543902Y442211D1*
X2494177D1*
X2468677Y467621D1*
Y517601D1*
X2493752Y542381D1*
X2594477D2*
X2643777D1*
X2668852Y517181D1*
Y467201D1*
X2644202Y442211D1*
X2594477D1*
X2568977Y467621D1*
Y517601D1*
X2593627Y542381D1*
X2693927D2*
X2743652D1*
X2769152Y517181D1*
Y467201D1*
X2744077Y442211D1*
X2693927D1*
X2668852Y467621D1*
Y517601D1*
X2693927Y542381D1*
X2794227D2*
X2843952D1*
X2868602Y517181D1*
Y467201D1*
X2844377Y442211D1*
X2794227D1*
X2769152Y467621D1*
Y517601D1*
X2793802Y542381D1*
X2894102D2*
X2943827D1*
X2968902Y517181D1*
Y467201D1*
X2943827Y442211D1*
X2894102D1*
X2868602Y467621D1*
Y517601D1*
X2893677Y542381D1*
X2994402D2*
X3043702D1*
X3068777Y517181D1*
Y467201D1*
X3044127Y442211D1*
X2994402D1*
X2968902Y467621D1*
Y517601D1*
X2993552Y542381D1*
X3194152D2*
X3243877D1*
X3268952Y517181D1*
Y467201D1*
X3244302Y442211D1*
X3194152D1*
X3169077Y467621D1*
Y517601D1*
X3193727Y542381D1*
X3093852Y2442251D2*
X3143152D1*
X3168652Y2417261D1*
Y2367071D1*
X3143577Y2342501D1*
X3093852D1*
X3068352Y2367491D1*
Y2417681D1*
X3093427Y2442251D1*
X3193727D2*
X3243027D1*
X3268527Y2417261D1*
Y2367071D1*
X3243877Y2342501D1*
X3193727D1*
X3168652Y2367491D1*
Y2417681D1*
X3193302Y2442251D1*
X3293602D2*
X3343327D1*
X3368827Y2417261D1*
Y2367071D1*
X3343752Y2342501D1*
X3293602D1*
X3268527Y2367491D1*
Y2417681D1*
X3293602Y2442251D1*
X3393477D2*
X3443202D1*
X3468277Y2417261D1*
Y2367071D1*
X3443627Y2342501D1*
X3393477D1*
X3368827Y2367491D1*
Y2417681D1*
X3393052Y2442251D1*
X3493777D2*
X3543502D1*
X3568577Y2417261D1*
Y2367071D1*
X3543502Y2342501D1*
X3493777D1*
X3468277Y2367491D1*
Y2417681D1*
X3493352Y2442251D1*
X3593652D2*
X3642952D1*
X3668452Y2417261D1*
Y2367071D1*
X3643802Y2342501D1*
X3593652D1*
X3568577Y2367491D1*
Y2417681D1*
X3593227Y2442251D1*
X3693527D2*
X3743252D1*
X3768752Y2417261D1*
Y2367071D1*
X3743677Y2342501D1*
X3693527D1*
X3668452Y2367491D1*
Y2417681D1*
X3693527Y2442251D1*
X3993577D2*
X4043302D1*
X4068377Y2417261D1*
Y2367071D1*
X4043727Y2342501D1*
X3993577D1*
X3968502Y2367491D1*
Y2417681D1*
X3993152Y2442251D1*
X1694327Y542381D2*
X1743627D1*
X1769127Y517181D1*
Y467201D1*
X1744052Y442211D1*
X1694327D1*
X1668827Y467621D1*
Y517601D1*
X1693902Y542381D1*
X1793777D2*
X1843927D1*
X1869002Y517181D1*
Y467201D1*
X1844352Y442211D1*
X1793777D1*
X1769127Y467621D1*
Y517601D1*
X1793777Y542381D1*
X1894077D2*
X1943802D1*
X1968877Y517181D1*
Y467201D1*
X1944227Y442211D1*
X1894077D1*
X1869002Y467621D1*
Y517601D1*
X1893652Y542381D1*
X1993952D2*
X2043677D1*
X2068752Y517181D1*
Y467201D1*
X2044102Y442211D1*
X1993952D1*
X1968877Y467621D1*
Y517601D1*
X1993527Y542381D1*
X2094252D2*
X2143552D1*
X2169052Y517181D1*
Y467201D1*
X2143977Y442211D1*
X2094252D1*
X2068752Y467621D1*
Y517601D1*
X2093827Y542381D1*
X2294002D2*
X2343727D1*
X2368802Y517181D1*
Y467201D1*
X2344152Y442211D1*
X2294002D1*
X2268927Y467621D1*
Y517601D1*
X2293577Y542381D1*
X2193702Y2442251D2*
X2243002D1*
X2268502Y2417261D1*
Y2367071D1*
X2243427Y2342501D1*
X2193702D1*
X2168627Y2367491D1*
Y2417681D1*
X2193277Y2442251D1*
X2293577D2*
X2343302D1*
X2368802Y2417261D1*
Y2367071D1*
X2343727Y2342501D1*
X2293577D1*
X2268502Y2367491D1*
Y2417681D1*
X2293577Y2442251D1*
X2393452D2*
X2443177D1*
X2468677Y2417261D1*
Y2367071D1*
X2443602Y2342501D1*
X2393452D1*
X2368802Y2367491D1*
Y2417681D1*
X2393452Y2442251D1*
X2493752D2*
X2543477D1*
X2568552Y2417261D1*
Y2367071D1*
X2543902Y2342501D1*
X2493752D1*
X2468677Y2367491D1*
Y2417681D1*
X2493327Y2442251D1*
X2593627D2*
X2643352D1*
X2668427Y2417261D1*
Y2367071D1*
X2643352Y2342501D1*
X2593627D1*
X2568552Y2367491D1*
Y2417681D1*
X2593202Y2442251D1*
X2693927D2*
X2743227D1*
X2768727Y2417261D1*
Y2367071D1*
X2743652Y2342501D1*
X2693927D1*
X2668427Y2367491D1*
Y2417681D1*
X2693502Y2442251D1*
X2793802D2*
X2843102D1*
X2868602Y2417261D1*
Y2367071D1*
X2843952Y2342501D1*
X2793802D1*
X2768727Y2367491D1*
Y2417681D1*
X2793377Y2442251D1*
X2993552D2*
X3043277D1*
X3068352Y2417261D1*
Y2367071D1*
X3043702Y2342501D1*
X2993552D1*
X2968477Y2367491D1*
Y2417681D1*
X2993127Y2442251D1*
X4093877Y2342501D2*
X4143177D1*
X4168677Y2317091D1*
Y2267111D1*
X4143602Y2242331D1*
X4093877D1*
X4068377Y2267531D1*
Y2317511D1*
X4093452Y2342501D1*
X3993577D2*
X4043302D1*
X4068377Y2317091D1*
Y2267111D1*
X4043727Y2242331D1*
X3993577D1*
X3968502Y2267531D1*
Y2317511D1*
X3993152Y2342501D1*
X4093877Y2242331D2*
X4143177D1*
X4168677Y2217131D1*
Y2167151D1*
X4143602Y2142371D1*
X4093877D1*
X4068377Y2167571D1*
Y2217551D1*
X4093452Y2242331D1*
X3993577D2*
X4043302D1*
X4068377Y2217131D1*
Y2167151D1*
X4043727Y2142371D1*
X3993577D1*
X3968502Y2167571D1*
Y2217551D1*
X3993152Y2242331D1*
X4093877Y2142371D2*
X4143177D1*
X4168677Y2117171D1*
Y2066981D1*
X4143602Y2042411D1*
X4093877D1*
X4068377Y2067401D1*
Y2117591D1*
X4093452Y2142371D1*
X3993577D2*
X4043302D1*
X4068377Y2117171D1*
Y2066981D1*
X4043727Y2042411D1*
X3993577D1*
X3968502Y2067401D1*
Y2117591D1*
X3993152Y2142371D1*
X4093877Y2042411D2*
X4143177D1*
X4168677Y2017211D1*
Y1967231D1*
X4143602Y1942241D1*
X4093877D1*
X4068377Y1967651D1*
Y2017631D1*
X4093452Y2042411D1*
X3993577D2*
X4043302D1*
X4068377Y2017211D1*
Y1967231D1*
X4043727Y1942241D1*
X3993577D1*
X3968502Y1967651D1*
Y2017631D1*
X3993152Y2042411D1*
X4093877Y1942241D2*
X4143177D1*
X4168677Y1917041D1*
Y1867061D1*
X4143602Y1842281D1*
X4093877D1*
X4068377Y1867481D1*
Y1917461D1*
X4093452Y1942241D1*
X3993577D2*
X4043302D1*
X4068377Y1917041D1*
Y1867061D1*
X4043727Y1842281D1*
X3993577D1*
X3968502Y1867481D1*
Y1917461D1*
X3993152Y1942241D1*
X4093877Y1842281D2*
X4143177D1*
X4168677Y1817291D1*
Y1767101D1*
X4143602Y1742321D1*
X4093877D1*
X4068377Y1767521D1*
Y1817711D1*
X4093452Y1842281D1*
X3993577D2*
X4043302D1*
X4068377Y1817291D1*
Y1767101D1*
X4043727Y1742321D1*
X3993577D1*
X3968502Y1767521D1*
Y1817711D1*
X3993152Y1842281D1*
X4093877Y1742321D2*
X4143177D1*
X4168677Y1717121D1*
Y1667141D1*
X4143602Y1642361D1*
X4093877D1*
X4068377Y1667561D1*
Y1717541D1*
X4093452Y1742321D1*
X3993577D2*
X4043302D1*
X4068377Y1717121D1*
Y1667141D1*
X4043727Y1642361D1*
X3993577D1*
X3968502Y1667561D1*
Y1717541D1*
X3993152Y1742321D1*
X4093877Y1642361D2*
X4143177D1*
X4168677Y1617161D1*
Y1567181D1*
X4143602Y1542191D1*
X4093877D1*
X4068377Y1567601D1*
Y1617371D1*
X4093452Y1642361D1*
X3993577D2*
X4043302D1*
X4068377Y1617161D1*
Y1567181D1*
X4043727Y1542191D1*
X3993577D1*
X3968502Y1567601D1*
Y1617371D1*
X3993152Y1642361D1*
X4093877Y1542191D2*
X4143177D1*
X4168677Y1517201D1*
Y1467011D1*
X4143602Y1442441D1*
X4093877D1*
X4068377Y1467431D1*
Y1517621D1*
X4093452Y1542191D1*
X3993577D2*
X4043302D1*
X4068377Y1517201D1*
Y1467011D1*
X4043727Y1442441D1*
X3993577D1*
X3968502Y1467431D1*
Y1517621D1*
X3993152Y1542191D1*
X4093877Y1442441D2*
X4143177D1*
X4168677Y1417031D1*
Y1367261D1*
X4143602Y1342271D1*
X4093877D1*
X4068377Y1367681D1*
Y1417451D1*
X4093452Y1442441D1*
X3993577D2*
X4043302D1*
X4068377Y1417031D1*
Y1367261D1*
X4043727Y1342271D1*
X3993577D1*
X3968502Y1367681D1*
Y1417451D1*
X3993152Y1442441D1*
X4093877Y1342271D2*
X4143177D1*
X4168677Y1317071D1*
Y1267091D1*
X4143602Y1242311D1*
X4093877D1*
X4068377Y1267511D1*
Y1317491D1*
X4093452Y1342271D1*
X3993577D2*
X4043302D1*
X4068377Y1317071D1*
Y1267091D1*
X4043727Y1242311D1*
X3993577D1*
X3968502Y1267511D1*
Y1317491D1*
X3993152Y1342271D1*
X4093877Y1242311D2*
X4143177D1*
X4168677Y1217111D1*
Y1167131D1*
X4143602Y1142351D1*
X4093877D1*
X4068377Y1167551D1*
Y1217531D1*
X4093452Y1242311D1*
X3993577D2*
X4043302D1*
X4068377Y1217111D1*
Y1167131D1*
X4043727Y1142351D1*
X3993577D1*
X3968502Y1167551D1*
Y1217531D1*
X3993152Y1242311D1*
X4093877Y1142351D2*
X4143177D1*
X4168677Y1117151D1*
Y1067171D1*
X4143602Y1042391D1*
X4093877D1*
X4068377Y1067591D1*
Y1117571D1*
X4093452Y1142351D1*
X3993577D2*
X4043302D1*
X4068377Y1117151D1*
Y1067171D1*
X4043727Y1042391D1*
X3993577D1*
X3968502Y1067591D1*
Y1117571D1*
X3993152Y1142351D1*
X4093877Y1042391D2*
X4143177D1*
X4168677Y1017191D1*
Y967211D1*
X4143602Y942221D1*
X4093877D1*
X4068377Y967421D1*
Y1017401D1*
X4093452Y1042391D1*
X3993577D2*
X4043302D1*
X4068377Y1017191D1*
Y967211D1*
X4043727Y942221D1*
X3993577D1*
X3968502Y967421D1*
Y1017401D1*
X3993152Y1042391D1*
X4093877Y942221D2*
X4143177D1*
X4168677Y917231D1*
Y867251D1*
X4143602Y842471D1*
X4093877D1*
X4068377Y867461D1*
Y917651D1*
X4093452Y942221D1*
X3993577D2*
X4043302D1*
X4068377Y917231D1*
Y867251D1*
X4043727Y842471D1*
X3993577D1*
X3968502Y867461D1*
Y917651D1*
X3993152Y942221D1*
X4093877Y842471D2*
X4143177D1*
X4168677Y817061D1*
Y767081D1*
X4143602Y742301D1*
X4093877D1*
X4068377Y767501D1*
Y817481D1*
X4093452Y842471D1*
X3993577D2*
X4043302D1*
X4068377Y817061D1*
Y767081D1*
X4043727Y742301D1*
X3993577D1*
X3968502Y767501D1*
Y817481D1*
X3993152Y842471D1*
X4093877Y742301D2*
X4143177D1*
X4168677Y717311D1*
Y667121D1*
X4143602Y642551D1*
X4093877D1*
X4068377Y667541D1*
Y717521D1*
X4093452Y742301D1*
X3993577D2*
X4043302D1*
X4068377Y717311D1*
Y667121D1*
X4043727Y642551D1*
X3993577D1*
X3968502Y667541D1*
Y717521D1*
X3993152Y742301D1*
X1594027Y542381D2*
X1643752D1*
X1668827Y517181D1*
Y467201D1*
X1644177Y442211D1*
X1594027D1*
X1568952Y467621D1*
Y517601D1*
X1593602Y542381D1*
X1219825Y773359D2*
D40*
X1216973Y771934D1*
X1214088Y769048D1*
X1212662Y766197D1*
Y760460D1*
X1214088Y757575D1*
X1216973Y754723D1*
X1219825Y753264D1*
X1224136Y751838D1*
X1231332D1*
X1235610Y753264D1*
X1238495Y754723D1*
X1241347Y757575D1*
X1242806Y760460D1*
Y766197D1*
X1241347Y769048D1*
X1238495Y771933D1*
X1235610Y773359D1*
X1231332D1*
Y766197D1*
X939521Y752551D2*
Y765450D1*
X938062Y769761D1*
X936636Y771221D1*
X933784Y772647D1*
X930899D1*
X928047Y771221D1*
X926588Y769761D1*
X925162Y765450D1*
Y752551D1*
X955306D1*
X939521Y762599D2*
X955306Y772646D1*
X1135879Y741959D2*
Y754858D1*
X1134420Y759169D1*
X1132994Y760629D1*
X1130142Y762054D1*
X1127257Y762055D1*
X1124405Y760629D1*
X1122946Y759169D1*
X1121520Y754858D1*
Y741959D1*
X1151664D1*
X1135879Y752007D2*
X1151664Y762054D1*
X1127290Y771318D2*
X1125831Y774203D1*
X1121553Y778514D1*
X1151664D1*
X1046411Y741414D2*
Y754314D1*
X1044952Y758625D1*
X1043526Y760084D1*
X1040674Y761510D1*
X1037789D1*
X1034937Y760084D1*
X1033478Y758625D1*
X1032052Y754314D1*
Y741414D1*
X1062196D1*
X1046411Y751462D2*
X1062196Y761510D1*
X1039248Y772233D2*
X1037822D1*
X1034937Y773659D1*
X1033511Y775085D1*
X1032085Y777970D1*
Y783707D1*
X1033511Y786559D1*
X1034937Y787984D1*
X1037822Y789444D1*
X1040674D1*
X1043559Y787984D1*
X1047837Y785133D1*
X1062196Y770774D1*
Y790870D1*
X3092027Y699944D2*
D41*
X3130274D1*
X3137459Y697567D1*
X3139835Y695135D1*
X3142267Y690382D1*
Y685574D1*
X3139835Y680821D1*
X3137459Y678444D1*
X3130273Y676012D1*
X3125520D1*
X3092027Y732130D2*
X3142267D1*
X3092027Y715383D2*
Y748876D1*
X3142267Y802617D2*
X3092027Y783439D1*
X3142267Y764316D1*
X3125520Y771501D2*
Y795432D1*
X3103965Y853927D2*
X3099212Y851550D1*
X3094404Y846742D1*
X3092027Y841988D1*
Y832427D1*
X3094404Y827618D1*
X3099212Y822865D1*
X3103965Y820433D1*
X3111150Y818057D1*
X3123144D1*
X3130273Y820433D1*
X3135082Y822865D1*
X3139835Y827618D1*
X3142267Y832427D1*
Y841988D1*
X3139835Y846742D1*
X3135082Y851550D1*
X3130273Y853927D1*
X3123144D1*
Y841988D1*
X1552691Y1757523D2*
D42*
X1539857Y1753245D1*
X1535480Y1744690D1*
Y1736034D1*
X1539857Y1727479D1*
X1548413Y1723101D1*
X1565624Y1718823D1*
X1578557Y1714546D1*
X1587113Y1705890D1*
X1591391Y1697335D1*
Y1684402D1*
X1587113Y1675846D1*
X1582835Y1671469D1*
X1569902Y1667191D1*
X1552691D1*
X1539857Y1671469D1*
X1535480Y1675846D1*
X1531202Y1684402D1*
Y1697335D1*
X1535480Y1705890D1*
X1544135Y1714546D1*
X1556969Y1718823D1*
X1574180Y1723101D1*
X1582835Y1727479D1*
X1587113Y1736034D1*
Y1744690D1*
X1582835Y1753245D1*
X1569902Y1757523D1*
X1552691D1*
X1619181Y1712357D2*
X1668924D1*
X1696715Y1757623D2*
Y1667191D1*
Y1714546D2*
X1705370Y1723201D1*
X1713926Y1727479D1*
X1726859D1*
X1735414Y1723201D1*
X1744070Y1714546D1*
X1748347Y1701613D1*
Y1693057D1*
X1744070Y1680124D1*
X1735414Y1671568D1*
X1726859Y1667191D1*
X1713926D1*
X1705370Y1671568D1*
X1696715Y1680124D1*
X1776138Y1757623D2*
X1780416Y1753345D1*
X1784793Y1757623D1*
X1780416Y1762000D1*
X1776138Y1757623D1*
X1780416Y1727479D2*
Y1667191D1*
X1825517Y1757623D2*
Y1684402D1*
X1829795Y1671568D1*
X1838450Y1667191D1*
X1847006D1*
X1812584Y1727479D2*
X1842728D1*
X1962278Y1757623D2*
Y1667191D1*
X1992422D1*
X2005355Y1671568D1*
X2014010Y1680124D1*
X2018288Y1688779D1*
X2022566Y1701613D1*
Y1723201D1*
X2018288Y1736134D1*
X2014010Y1744690D1*
X2005355Y1753345D1*
X1992422Y1757623D1*
X1962278D1*
X2050357Y1727479D2*
Y1684402D1*
X2054635Y1671568D1*
X2063290Y1667191D1*
X2076223D1*
X2084779Y1671568D1*
X2097712Y1684402D1*
Y1727479D2*
Y1667191D1*
X2125502Y1727479D2*
Y1667191D1*
Y1710268D2*
X2138435Y1723201D1*
X2147091Y1727479D1*
X2159924D1*
X2168579Y1723201D1*
X2172857Y1710268D1*
Y1667191D1*
Y1710268D2*
X2185790Y1723201D1*
X2194446Y1727479D1*
X2207279D1*
X2215934Y1723201D1*
X2220312Y1710268D1*
Y1667191D1*
X2248102Y1727479D2*
Y1637047D1*
Y1714546D2*
X2256758Y1723101D1*
X2265313Y1727479D1*
X2278246D1*
X2286902Y1723101D1*
X2295457Y1714546D1*
X2299835Y1701613D1*
Y1692957D1*
X2295457Y1680124D1*
X2286902Y1671469D1*
X2278246Y1667191D1*
X2265313D1*
X2256758Y1671469D1*
X2248102Y1680124D1*
X2387913Y1744690D2*
X2379358Y1753345D1*
X2366425Y1757623D1*
X2349214D1*
X2336281Y1753345D1*
X2327625Y1744690D1*
Y1736134D1*
X2332003Y1727479D1*
X2336281Y1723201D1*
X2344836Y1718923D1*
X2370702Y1710268D1*
X2379358Y1705990D1*
X2383635Y1701613D1*
X2387913Y1693057D1*
Y1680124D1*
X2379358Y1671568D1*
X2366425Y1667191D1*
X2349214D1*
X2336281Y1671568D1*
X2327625Y1680124D1*
X2415704Y1757623D2*
Y1667191D1*
Y1710268D2*
X2428637Y1723201D1*
X2437292Y1727479D1*
X2450225D1*
X2458781Y1723201D1*
X2463059Y1710268D1*
Y1667191D1*
X2490850Y1757623D2*
X2495127Y1753345D1*
X2499505Y1757623D1*
X2495127Y1762000D1*
X2490850Y1757623D1*
X2495127Y1727479D2*
Y1667191D1*
X2527295Y1701613D2*
X2578928D1*
Y1710268D1*
X2574650Y1718923D1*
X2570373Y1723201D1*
X2561717Y1727479D1*
X2548784D1*
X2540229Y1723201D1*
X2531573Y1714546D1*
X2527295Y1701613D1*
Y1693057D1*
X2531573Y1680124D1*
X2540229Y1671568D1*
X2548784Y1667191D1*
X2561717D1*
X2570373Y1671568D1*
X2578928Y1680124D1*
X2606719Y1757623D2*
Y1667191D1*
X2686142Y1757623D2*
Y1667191D1*
Y1714546D2*
X2677587Y1723201D1*
X2668931Y1727479D1*
X2655998D1*
X2647443Y1723201D1*
X2638787Y1714546D1*
X2634510Y1701613D1*
Y1693057D1*
X2638787Y1680124D1*
X2647443Y1671568D1*
X2655998Y1667191D1*
X2668931D1*
X2677587Y1671568D1*
X2686142Y1680124D1*
X1668703Y1081022D2*
D44*
X1664901Y1088627D1*
X1657207Y1096321D1*
X1649602Y1100123D1*
X1634304D1*
X1626610Y1096321D1*
X1619005Y1088627D1*
X1615114Y1081022D1*
X1611312Y1069526D1*
Y1050336D1*
X1615114Y1038929D1*
X1619005Y1031235D1*
X1626610Y1023630D1*
X1634304Y1019739D1*
X1649602D1*
X1657207Y1023630D1*
X1664901Y1031235D1*
X1668703Y1038929D1*
X1754689Y1019739D2*
X1724003Y1100123D1*
X1693406Y1019739D1*
X1704902Y1046534D2*
X1743193D1*
X1779392Y1061832D2*
X1813792D1*
X1825288Y1065723D1*
X1829179Y1069526D1*
X1832981Y1077131D1*
Y1084824D1*
X1829179Y1092430D1*
X1825288Y1096321D1*
X1813792Y1100123D1*
X1779392D1*
Y1019739D1*
X1806187Y1061832D2*
X1832981Y1019739D1*
X1884479Y1100123D2*
Y1019739D1*
X1857684Y1100123D2*
X1911273D1*
X1935976Y1061832D2*
X1970376D1*
X1981872Y1065723D1*
X1985763Y1069526D1*
X1989566Y1077131D1*
Y1084824D1*
X1985763Y1092430D1*
X1981872Y1096321D1*
X1970376Y1100123D1*
X1935976D1*
Y1019739D1*
X1962771Y1061832D2*
X1989566Y1019739D1*
X2014268Y1100123D2*
Y1019739D1*
X2038971Y1100123D2*
Y1019739D1*
X2065766D1*
X2077262Y1023630D1*
X2084955Y1031235D1*
X2088758Y1038929D1*
X2092560Y1050336D1*
Y1069526D1*
X2088758Y1081022D1*
X2084955Y1088627D1*
X2077262Y1096321D1*
X2065766Y1100123D1*
X2038971D1*
X2174655Y1081022D2*
X2170853Y1088627D1*
X2163159Y1096321D1*
X2155554Y1100123D1*
X2140255D1*
X2132562Y1096321D1*
X2124957Y1088627D1*
X2121066Y1081022D1*
X2117263Y1069526D1*
Y1050336D1*
X2121066Y1038929D1*
X2124957Y1031235D1*
X2132562Y1023630D1*
X2140255Y1019739D1*
X2155554D1*
X2163159Y1023630D1*
X2170853Y1031235D1*
X2174655Y1038929D1*
Y1050336D1*
X2155554D1*
X2249056Y1100123D2*
X2199358D1*
Y1019739D1*
X2249056D1*
X2199358Y1061832D2*
X2229955D1*
X2405110Y1088627D2*
X2397505Y1096321D1*
X2386009Y1100123D1*
X2370710D1*
X2359214Y1096321D1*
X2351521Y1088627D1*
Y1081022D1*
X2355412Y1073328D1*
X2359214Y1069526D1*
X2366819Y1065723D1*
X2389811Y1058030D1*
X2397505Y1054227D1*
X2401307Y1050336D1*
X2405110Y1042731D1*
Y1031235D1*
X2397505Y1023630D1*
X2386009Y1019739D1*
X2370710D1*
X2359214Y1023630D1*
X2351521Y1031235D1*
X2429813Y1100123D2*
Y1019739D1*
X2475709D1*
X2523404Y1100123D2*
X2515710Y1096321D1*
X2508105Y1088627D1*
X2504214Y1081022D1*
X2500411Y1069526D1*
Y1050336D1*
X2504214Y1038929D1*
X2508105Y1031235D1*
X2515710Y1023630D1*
X2523404Y1019739D1*
X2538702D1*
X2546307Y1023630D1*
X2554001Y1031235D1*
X2557803Y1038929D1*
X2561606Y1050336D1*
Y1069526D1*
X2557803Y1081022D1*
X2554001Y1088627D1*
X2546307Y1096321D1*
X2538702Y1100123D1*
X2523404D1*
X2613103D2*
Y1019739D1*
X2586309Y1100123D2*
X2639898D1*
X1498369Y572979D2*
D45*
X1538561D1*
X1498369Y596826D2*
X1500270Y592979D1*
X1504117Y589177D1*
X1507920Y587231D1*
X1513668Y585330D1*
X1523262D1*
X1528966Y587231D1*
X1532813Y589177D1*
X1536616Y592979D1*
X1538561Y596826D1*
Y604475D1*
X1536616Y608278D1*
X1532813Y612125D1*
X1528966Y614026D1*
X1523263Y615927D1*
X1513668D1*
X1507920Y614026D1*
X1504117Y612125D1*
X1500270Y608278D1*
X1498369Y604475D1*
Y596826D1*
X1517514Y628279D2*
Y645479D1*
X1515569Y651227D1*
X1513668Y653172D1*
X1509865Y655073D1*
X1506018D1*
X1502216Y653172D1*
X1500270Y651227D1*
X1498369Y645479D1*
Y628279D1*
X1538561D1*
X1517514Y641676D2*
X1538561Y655073D1*
X1498369Y692274D2*
Y667425D1*
X1538561D1*
Y692274D1*
X1517514Y667425D2*
Y682723D1*
X1498369Y729519D2*
Y704625D1*
X1538561D1*
X1517514D2*
Y719924D1*
X1398494Y599773D2*
X1438686D1*
X1398494Y572979D1*
X1438686D1*
X1408045Y640821D2*
X1404242Y638919D1*
X1400395Y635073D1*
X1398494Y631270D1*
Y623621D1*
X1400395Y619774D1*
X1404242Y615972D1*
X1408045Y614026D1*
X1413793Y612125D1*
X1423388D1*
X1429091Y614026D1*
X1432938Y615971D1*
X1436741Y619774D1*
X1438686Y623621D1*
Y631270D1*
X1436741Y635073D1*
X1432938Y638919D1*
X1429091Y640821D1*
X1142017Y2231893D2*
X1138170Y2228091D1*
X1136269Y2222343D1*
Y2214694D1*
X1138170Y2208946D1*
X1142017Y2205099D1*
X1145820D1*
X1149666Y2207044D1*
X1151568Y2208946D1*
X1153469Y2212748D1*
X1157316Y2224244D1*
X1159217Y2228091D1*
X1161163Y2229992D1*
X1164965Y2231893D1*
X1170713D1*
X1174516Y2228091D1*
X1176461Y2222343D1*
Y2214694D1*
X1174516Y2208946D1*
X1170713Y2205099D1*
X1136269Y2244245D2*
X1176461D1*
Y2257642D1*
X1174516Y2263390D1*
X1170713Y2267237D1*
X1166866Y2269138D1*
X1161163Y2271039D1*
X1151568D1*
X1145820Y2269138D1*
X1142017Y2267237D1*
X1138170Y2263390D1*
X1136269Y2257642D1*
Y2244245D1*
X1176461Y2314032D2*
X1136269Y2298689D1*
X1176461Y2283391D1*
X1163064Y2289139D2*
Y2308284D1*
X1042142Y2238193D2*
X1038295Y2234391D1*
X1036394Y2228643D1*
Y2220994D1*
X1038295Y2215246D1*
X1042142Y2211399D1*
X1045945D1*
X1049791Y2213344D1*
X1051693Y2215246D1*
X1053594Y2219048D1*
X1057441Y2230544D1*
X1059342Y2234391D1*
X1061288Y2236292D1*
X1065090Y2238193D1*
X1070838D1*
X1074641Y2234391D1*
X1076586Y2228643D1*
Y2220994D1*
X1074641Y2215246D1*
X1070838Y2211399D1*
X1045945Y2279241D2*
X1042142Y2277339D1*
X1038295Y2273493D1*
X1036394Y2269690D1*
Y2262041D1*
X1038295Y2258194D1*
X1042142Y2254392D1*
X1045945Y2252446D1*
X1051693Y2250545D1*
X1061288D1*
X1066991Y2252446D1*
X1070838Y2254391D1*
X1074641Y2258194D1*
X1076586Y2262041D1*
Y2269690D1*
X1074641Y2273493D1*
X1070838Y2277339D1*
X1066991Y2279241D1*
X1036394Y2291592D2*
X1076586D1*
Y2314540D1*
X1810038Y610670D2*
X1790937D1*
X1789035Y593470D1*
X1790937Y595371D1*
X1796685Y597316D1*
X1802389D1*
X1808137Y595371D1*
X1811983Y591568D1*
X1813885Y585820D1*
Y582018D1*
X1811983Y576270D1*
X1808137Y572423D1*
X1802389Y570522D1*
X1796685D1*
X1790937Y572423D1*
X1789035Y574369D1*
X1787090Y578171D1*
X1826236Y610714D2*
X1841535Y570522D1*
X1856833Y610714D1*
X1941586Y601163D2*
X1939685Y604966D1*
X1935838Y608813D1*
X1932035Y610714D1*
X1924386D1*
X1920539Y608813D1*
X1916737Y604966D1*
X1914791Y601163D1*
X1912890Y595415D1*
Y585820D1*
X1914791Y580117D1*
X1916737Y576270D1*
X1920539Y572467D1*
X1924386Y570522D1*
X1932035D1*
X1935838Y572467D1*
X1939685Y576270D1*
X1941586Y580117D1*
Y585820D1*
X1932035D1*
X1980732Y610714D2*
Y570522D1*
X1953937Y610714D1*
Y570522D1*
X1993083Y610714D2*
Y570522D1*
X2006481D1*
X2012229Y572467D1*
X2016075Y576270D1*
X2017977Y580117D1*
X2019878Y585820D1*
Y595415D1*
X2017977Y601163D1*
X2016075Y604966D1*
X2012229Y608813D1*
X2006481Y610714D1*
X1993083D1*
X2074390D2*
X2089689Y570522D1*
X2104987Y610714D1*
X2117339D2*
Y570522D1*
X2156485Y610714D2*
Y570522D1*
X2129690Y610714D1*
Y570522D1*
X1696888Y576826D2*
Y597828D1*
X1712187Y586376D1*
Y592124D1*
X1714088Y595927D1*
X1715989Y597828D1*
X1721738Y599773D1*
X1725540D1*
X1731288Y597828D1*
X1735135Y594025D1*
X1737036Y588277D1*
Y582529D1*
X1735135Y576826D1*
X1733189Y574924D1*
X1729387Y572979D1*
X1696844Y612125D2*
X1737036Y627423D1*
X1696844Y642722D1*
X1696888Y658920D2*
Y679923D1*
X1712187Y668471D1*
Y674219D1*
X1714088Y678021D1*
X1715989Y679923D1*
X1721737Y681868D1*
X1725540D1*
X1731288Y679923D1*
X1735135Y676120D1*
X1737036Y670372D1*
Y664624D1*
X1735135Y658920D1*
X1733189Y657019D1*
X1729387Y655073D1*
X1617814Y572979D2*
Y590179D1*
X1615869Y595927D1*
X1613968Y597872D1*
X1610165Y599773D1*
X1606318D1*
X1602516Y597872D1*
X1600570Y595927D1*
X1598669Y590179D1*
Y572979D1*
X1638861D1*
X1617814Y586376D2*
X1638861Y599773D1*
X1598669Y636974D2*
Y612125D1*
X1638861D1*
Y636974D1*
X1617814Y612125D2*
Y627423D1*
X1604417Y676120D2*
X1600570Y672317D1*
X1598669Y666569D1*
Y658920D1*
X1600570Y653172D1*
X1604417Y649325D1*
X1608220D1*
X1612066Y651271D1*
X1613968Y653172D1*
X1615869Y656975D1*
X1619716Y668471D1*
X1621617Y672317D1*
X1623562Y674219D1*
X1627365Y676120D1*
X1633113D1*
X1636916Y672317D1*
X1638861Y666569D1*
Y658920D1*
X1636916Y653172D1*
X1633113Y649325D1*
X1598669Y713321D2*
Y688471D1*
X1638861D1*
Y713321D1*
X1617814Y688471D2*
Y703770D1*
X1598669Y739069D2*
X1638861D1*
X1598669Y725672D2*
Y752467D1*
X1446563Y2268519D2*
X1444617Y2272366D1*
X1438913Y2278114D1*
X1479061D1*
X1438913Y2294312D2*
Y2315314D1*
X1454212Y2303862D1*
Y2309610D1*
X1456113Y2313413D1*
X1458014Y2315314D1*
X1463763Y2317260D1*
X1467565D1*
X1473313Y2315314D1*
X1477160Y2311511D1*
X1479061Y2305763D1*
Y2300015D1*
X1477160Y2294312D1*
X1475214Y2292410D1*
X1471412Y2290465D1*
X1548563Y2272299D2*
X1546617Y2276146D1*
X1540913Y2281894D1*
X1581061D1*
X1550464Y2296190D2*
X1548563D1*
X1544716Y2298092D1*
X1542815Y2299993D1*
X1540913Y2303840D1*
Y2311489D1*
X1542815Y2315292D1*
X1544716Y2317193D1*
X1548563Y2319138D1*
X1552365D1*
X1556212Y2317193D1*
X1561916Y2313390D1*
X1581061Y2294245D1*
Y2321040D1*
X1648438Y2276289D2*
X1646492Y2280136D1*
X1640788Y2285884D1*
X1680936D1*
X1648438Y2298235D2*
X1646492Y2302082D1*
X1640788Y2307830D1*
X1680936D1*
X1748738Y2264319D2*
X1746792Y2268166D1*
X1741088Y2273914D1*
X1781236D1*
X1741088Y2297761D2*
X1742990Y2292013D1*
X1748738Y2288166D1*
X1758288Y2286265D1*
X1764036D1*
X1773587Y2288166D1*
X1779335Y2292013D1*
X1781236Y2297761D1*
Y2301563D1*
X1779335Y2307311D1*
X1773587Y2311114D1*
X1764036Y2313060D1*
X1758288D1*
X1748738Y2311114D1*
X1742990Y2307312D1*
X1741088Y2301564D1*
Y2297761D1*
X1748738Y2311114D2*
X1773587Y2288166D1*
X1854316Y2304962D2*
X1860064Y2303017D1*
X1863911Y2299214D1*
X1865812Y2293466D1*
Y2291565D1*
X1863911Y2285817D1*
X1860064Y2282014D1*
X1854316Y2280069D1*
X1852415D1*
X1846667Y2282014D1*
X1842865Y2285817D1*
X1840963Y2291565D1*
Y2293466D1*
X1842865Y2299214D1*
X1846667Y2303017D1*
X1854316Y2304962D1*
X1863911D1*
X1873462Y2303017D1*
X1879210Y2299214D1*
X1881111Y2293466D1*
Y2289664D1*
X1879210Y2283916D1*
X1875363Y2282014D1*
X1940838Y2289619D2*
X1942740Y2283916D1*
X1946542Y2281970D1*
X1950389D1*
X1954191Y2283916D1*
X1956137Y2287718D1*
X1958038Y2295367D1*
X1959939Y2301115D1*
X1963786Y2304918D1*
X1967589Y2306819D1*
X1973337D1*
X1977139Y2304918D1*
X1979085Y2303017D1*
X1980986Y2297269D1*
Y2289619D1*
X1979085Y2283916D1*
X1977139Y2281970D1*
X1973337Y2280069D1*
X1967589D1*
X1963786Y2281970D1*
X1959939Y2285817D1*
X1958038Y2291521D1*
X1956137Y2299170D1*
X1954191Y2303017D1*
X1950389Y2304918D1*
X1946542D1*
X1942740Y2303017D1*
X1940838Y2297269D1*
Y2289619D1*
X2140361Y2287718D2*
X2100213Y2306863D1*
Y2280069D1*
X2205792Y2303017D2*
X2201990Y2301115D1*
X2200088Y2295367D1*
Y2291565D1*
X2201990Y2285817D1*
X2207738Y2281970D1*
X2217288Y2280069D1*
X2226839D1*
X2234488Y2281970D1*
X2238335Y2285817D1*
X2240236Y2291565D1*
Y2293466D1*
X2238335Y2299170D1*
X2234488Y2303017D1*
X2228740Y2304918D1*
X2226839D1*
X2221091Y2303017D1*
X2217288Y2299170D1*
X2215387Y2293466D1*
Y2291565D1*
X2217288Y2285817D1*
X2221091Y2281970D1*
X2226839Y2280069D1*
X2297838Y2303017D2*
Y2283916D1*
X2315038Y2282014D1*
X2313137Y2283916D1*
X2311191Y2289664D1*
Y2295367D1*
X2313137Y2301115D1*
X2316939Y2304962D1*
X2322688Y2306863D1*
X2326490D1*
X2332238Y2304962D1*
X2336085Y2301115D1*
X2337986Y2295367D1*
Y2289664D1*
X2336085Y2283916D1*
X2334139Y2282014D1*
X2330337Y2280069D1*
X2437861Y2299214D2*
X2397713D1*
X2424464Y2280069D1*
Y2308765D1*
X2497588Y2283916D2*
Y2304918D1*
X2512887Y2293466D1*
Y2299214D1*
X2514788Y2303017D1*
X2516689Y2304918D1*
X2522438Y2306863D1*
X2526240D1*
X2531988Y2304918D1*
X2535835Y2301115D1*
X2537736Y2295367D1*
Y2289619D1*
X2535835Y2283916D1*
X2533889Y2282014D1*
X2530087Y2280069D1*
X2607439Y2282014D2*
X2605538D1*
X2601691Y2283916D1*
X2599790Y2285817D1*
X2597888Y2289664D1*
Y2297313D1*
X2599790Y2301115D1*
X2601691Y2303017D1*
X2605538Y2304962D1*
X2609340D1*
X2613187Y2303017D1*
X2618891Y2299214D1*
X2638036Y2280069D1*
Y2306863D1*
X2705413Y2288049D2*
X2703467Y2291896D1*
X2697763Y2297644D1*
X2737911D1*
X2797638Y2291565D2*
X2799540Y2285817D1*
X2805288Y2281970D1*
X2814838Y2280069D1*
X2820586D1*
X2830137Y2281970D1*
X2835885Y2285817D1*
X2837786Y2291565D1*
Y2295367D1*
X2835885Y2301115D1*
X2830137Y2304918D1*
X2820586Y2306863D1*
X2814838D1*
X2805288Y2304918D1*
X2799540Y2301115D1*
X2797638Y2295367D1*
Y2291565D1*
X2805288Y2304918D2*
X2830137Y2281970D1*
X1276336Y2200460D2*
X1236144Y2185117D1*
X1276336Y2169819D1*
X1262939Y2175567D2*
Y2194712D1*
X1255289Y2212812D2*
Y2230011D1*
X1253344Y2235759D1*
X1251443Y2237705D1*
X1247640Y2239606D1*
X1243793D1*
X1239991Y2237705D1*
X1238045Y2235759D1*
X1236144Y2230011D1*
Y2212812D1*
X1276336Y2212811D1*
X1255289Y2226209D2*
X1276336Y2239606D1*
X1236144Y2276807D2*
Y2251958D1*
X1276336D1*
Y2276807D1*
X1255289Y2251958D2*
Y2267256D1*
X1236144Y2314052D2*
Y2289158D1*
X1276336D1*
X1255289D2*
Y2304457D1*
X1349820Y2235895D2*
X1346017Y2233993D1*
X1342170Y2230147D1*
X1340269Y2226344D1*
Y2218695D1*
X1342170Y2214848D1*
X1346017Y2211046D1*
X1349820Y2209100D1*
X1355568Y2207199D1*
X1365162D1*
X1370866Y2209100D1*
X1374713Y2211046D1*
X1378516Y2214848D1*
X1380461Y2218695D1*
Y2226344D1*
X1378516Y2230147D1*
X1374713Y2233993D1*
X1370866Y2235895D1*
X1365163D1*
Y2226344D1*
X1340269Y2275041D2*
X1380461D1*
X1340269Y2248246D1*
X1380461D1*
X1340269Y2287392D2*
X1380461D1*
Y2300789D1*
X1378516Y2306537D1*
X1374713Y2310384D1*
X1370866Y2312285D1*
X1365162Y2314187D1*
X1355568D1*
X1349820Y2312285D1*
X1346017Y2310384D1*
X1342170Y2306537D1*
X1340269Y2300789D1*
Y2287392D1*
X3005463Y2264319D2*
X3003517Y2268166D1*
X2997813Y2273914D1*
X3037961D1*
Y2305410D2*
X2997813D1*
X3024564Y2286265D1*
Y2314961D1*
X3105338Y2264319D2*
X3103392Y2268166D1*
X3097688Y2273914D1*
X3137836D1*
X3097688Y2309213D2*
Y2290112D1*
X3114888Y2288210D1*
X3112987Y2290112D1*
X3111041Y2295860D1*
Y2301564D1*
X3112987Y2307312D1*
X3116789Y2311158D1*
X3122538Y2313060D1*
X3126340D1*
X3132088Y2311158D1*
X3135935Y2307311D1*
X3137836Y2301563D1*
Y2295860D1*
X3135935Y2290112D1*
X3133989Y2288210D1*
X3130187Y2286265D1*
X3205638Y2264319D2*
X3203692Y2268166D1*
X3197988Y2273914D1*
X3238136D1*
X3203692Y2309213D2*
X3199890Y2307312D1*
X3197988Y2301564D1*
Y2297761D1*
X3199890Y2292013D1*
X3205638Y2288166D1*
X3215188Y2286265D1*
X3224739D1*
X3232388Y2288166D1*
X3236235Y2292013D1*
X3238136Y2297761D1*
Y2299662D1*
X3236235Y2305366D1*
X3232388Y2309213D1*
X3226640Y2311114D1*
X3224739D1*
X3218991Y2309213D1*
X3215188Y2305366D1*
X3213287Y2299662D1*
Y2297761D1*
X3215188Y2292013D1*
X3218991Y2288166D1*
X3224739Y2286265D1*
X3305513Y2264319D2*
X3303567Y2268166D1*
X3297863Y2273914D1*
X3338011D1*
Y2293914D2*
X3297863Y2313060D1*
Y2286265D1*
X3405388Y2264319D2*
X3403442Y2268166D1*
X3397738Y2273914D1*
X3437886D1*
X3397738Y2295815D2*
X3399640Y2290112D1*
X3403442Y2288166D1*
X3407289D1*
X3411091Y2290112D1*
X3413037Y2293914D1*
X3414938Y2301563D1*
X3416839Y2307312D1*
X3420686Y2311114D1*
X3424489Y2313015D1*
X3430237D1*
X3434039Y2311114D1*
X3435985Y2309213D1*
X3437886Y2303465D1*
Y2295815D1*
X3435985Y2290112D1*
X3434039Y2288166D1*
X3430237Y2286265D1*
X3424489D1*
X3420686Y2288166D1*
X3416839Y2292013D1*
X3414938Y2297717D1*
X3413037Y2305366D1*
X3411091Y2309213D1*
X3407289Y2311114D1*
X3403442D1*
X3399640Y2309213D1*
X3397738Y2303465D1*
Y2295815D1*
X3505263Y2264319D2*
X3503317Y2268166D1*
X3497613Y2273914D1*
X3537761D1*
X3510966Y2311158D2*
X3516714Y2309213D1*
X3520561Y2305410D1*
X3522463Y2299662D1*
Y2297761D1*
X3520561Y2292013D1*
X3516714Y2288210D1*
X3510966Y2286265D1*
X3509065D1*
X3503317Y2288210D1*
X3499515Y2292013D1*
X3497613Y2297761D1*
Y2299662D1*
X3499515Y2305410D1*
X3503317Y2309213D1*
X3510966Y2311158D1*
X3520561D1*
X3530112Y2309213D1*
X3535860Y2305410D1*
X3537761Y2299662D1*
Y2295860D1*
X3535860Y2290112D1*
X3532013Y2288210D1*
X3607464Y2258704D2*
X3605563D1*
X3601716Y2260606D1*
X3599815Y2262507D1*
X3597913Y2266354D1*
Y2274003D1*
X3599815Y2277805D1*
X3601716Y2279707D1*
X3605563Y2281652D1*
X3609365D1*
X3613212Y2279707D1*
X3618916Y2275904D1*
X3638061Y2256759D1*
Y2283553D1*
X3597913Y2307401D2*
X3599815Y2301653D1*
X3605563Y2297806D1*
X3615113Y2295905D1*
X3620861D1*
X3630412Y2297806D1*
X3636160Y2301653D1*
X3638061Y2307401D1*
Y2311203D1*
X3636160Y2316951D1*
X3630412Y2320754D1*
X3620861Y2322699D1*
X3615113D1*
X3605563Y2320754D1*
X3599815Y2316951D1*
X3597913Y2311203D1*
Y2307401D1*
X3605563Y2320754D2*
X3630412Y2297806D1*
X3707339Y2266264D2*
X3705438D1*
X3701591Y2268166D1*
X3699690Y2270067D1*
X3697788Y2273914D1*
Y2281563D1*
X3699690Y2285365D1*
X3701591Y2287267D1*
X3705438Y2289212D1*
X3709240D1*
X3713087Y2287267D1*
X3718791Y2283464D1*
X3737936Y2264319D1*
Y2291113D1*
X3705438Y2303465D2*
X3703492Y2307312D1*
X3697788Y2313060D1*
X3737936D1*
X3945104Y2473622D2*
D40*
X3930778D1*
X3929352Y2460723D1*
X3930778Y2462148D1*
X3935089Y2463608D1*
X3939367D1*
X3943678Y2462148D1*
X3946563Y2459297D1*
X3947989Y2454986D1*
Y2452134D1*
X3946563Y2447823D1*
X3943678Y2444938D1*
X3939367Y2443512D1*
X3935089D1*
X3930778Y2444938D1*
X3929352Y2446397D1*
X3927893Y2449249D1*
X3957253Y2473656D2*
X3968726Y2443512D1*
X3980200Y2473656D1*
X4189411Y633293D2*
D45*
X4187510Y637096D1*
X4183663Y640943D1*
X4179860Y642844D1*
X4172211D1*
X4168364Y640943D1*
X4164562Y637096D1*
X4162616Y633293D1*
X4160715Y627545D1*
Y617950D1*
X4162616Y612247D1*
X4164562Y608400D1*
X4168364Y604597D1*
X4172211Y602652D1*
X4179860D1*
X4183663Y604597D1*
X4187510Y608400D1*
X4189411Y612247D1*
Y617950D1*
X4179860D1*
X4228557Y642844D2*
Y602652D1*
X4201762Y642844D1*
Y602652D1*
X4240908Y642844D2*
Y602652D1*
X4254306D1*
X4260054Y604597D1*
X4263900Y608400D1*
X4265802Y612247D1*
X4267703Y617950D1*
Y627545D1*
X4265802Y633293D1*
X4263900Y637096D1*
X4260054Y640943D1*
X4254306Y642844D1*
X4240908D1*
X2296988Y586995D2*
X2298890Y581247D1*
X2304638Y577400D1*
X2314188Y575499D1*
X2319936D1*
X2329487Y577400D1*
X2335235Y581247D1*
X2337136Y586995D1*
Y590797D1*
X2335235Y596545D1*
X2329487Y600348D1*
X2319936Y602293D1*
X2314188D1*
X2304638Y600348D1*
X2298890Y596545D1*
X2296988Y590797D1*
Y586995D1*
X2304638Y600348D2*
X2329487Y577400D1*
X2407063Y579279D2*
X2405117Y583126D1*
X2399413Y588874D1*
X2439561D1*
X2508839Y573454D2*
X2506938D1*
X2503091Y575356D1*
X2501190Y577257D1*
X2499288Y581104D1*
Y588753D1*
X2501190Y592555D1*
X2503091Y594457D1*
X2506938Y596402D1*
X2510740D1*
X2514587Y594457D1*
X2520291Y590654D1*
X2539436Y571509D1*
Y598303D1*
X2599163Y575356D2*
Y596358D1*
X2614462Y584906D1*
Y590654D1*
X2616363Y594457D1*
X2618264Y596358D1*
X2624013Y598303D1*
X2627815D1*
X2633563Y596358D1*
X2637410Y592555D1*
X2639311Y586807D1*
Y581059D1*
X2637410Y575356D1*
X2635464Y573454D1*
X2631662Y571509D1*
X2739611Y590654D2*
X2699463D1*
X2726214Y571509D1*
Y600205D1*
X2799338Y594457D2*
Y575356D1*
X2816538Y573454D1*
X2814637Y575356D1*
X2812691Y581104D1*
Y586807D1*
X2814637Y592555D1*
X2818439Y596402D1*
X2824188Y598303D1*
X2827990D1*
X2833738Y596402D1*
X2837585Y592555D1*
X2839486Y586807D1*
Y581104D1*
X2837585Y575356D1*
X2835639Y573454D1*
X2831837Y571509D1*
X2904917Y594457D2*
X2901115Y592555D1*
X2899213Y586807D1*
Y583005D1*
X2901115Y577257D1*
X2906863Y573410D1*
X2916413Y571509D1*
X2925964D1*
X2933613Y573410D1*
X2937460Y577257D1*
X2939361Y583005D1*
Y584906D1*
X2937460Y590610D1*
X2933613Y594457D1*
X2927865Y596358D1*
X2925964D1*
X2920216Y594457D1*
X2916413Y590610D1*
X2914512Y584906D1*
Y583005D1*
X2916413Y577257D1*
X2920216Y573410D1*
X2925964Y571509D1*
X3039236Y579158D2*
X2999088Y598303D1*
Y571509D1*
X3199263Y581059D2*
X3201165Y575356D1*
X3204967Y573410D1*
X3208814D1*
X3212616Y575356D1*
X3214562Y579158D1*
X3216463Y586807D1*
X3218364Y592555D1*
X3222211Y596358D1*
X3226014Y598259D1*
X3231762D1*
X3235564Y596358D1*
X3237510Y594457D1*
X3239411Y588709D1*
Y581059D1*
X3237510Y575356D1*
X3235564Y573410D1*
X3231762Y571509D1*
X3226014D1*
X3222211Y573410D1*
X3218364Y577257D1*
X3216463Y582961D1*
X3214562Y590610D1*
X3212616Y594457D1*
X3208814Y596358D1*
X3204967D1*
X3201165Y594457D1*
X3199263Y588709D1*
Y581059D1*
X3312916Y596402D2*
X3318664Y594457D1*
X3322511Y590654D1*
X3324412Y584906D1*
Y583005D1*
X3322511Y577257D1*
X3318664Y573454D1*
X3312916Y571509D1*
X3311015D1*
X3305267Y573454D1*
X3301465Y577257D1*
X3299563Y583005D1*
Y584906D1*
X3301465Y590654D1*
X3305267Y594457D1*
X3312916Y596402D1*
X3322511D1*
X3332062Y594457D1*
X3337810Y590654D1*
X3339711Y584906D1*
Y581104D1*
X3337810Y575356D1*
X3333963Y573454D1*
X3406663Y571509D2*
X3404717Y575356D1*
X3399013Y581104D1*
X3439161D1*
X3399013Y604951D2*
X3400915Y599203D1*
X3406663Y595356D1*
X3416213Y593455D1*
X3421961D1*
X3431512Y595356D1*
X3437260Y599203D1*
X3439161Y604951D1*
Y608753D1*
X3437260Y614501D1*
X3431512Y618304D1*
X3421961Y620250D1*
X3416213D1*
X3406663Y618304D1*
X3400915Y614502D1*
X3399013Y608754D1*
Y604951D1*
X3406663Y618304D2*
X3431512Y595356D1*
X3506963Y571509D2*
X3505017Y575356D1*
X3499313Y581104D1*
X3539461D1*
X3506963Y593455D2*
X3505017Y597302D1*
X3499313Y603050D1*
X3539461D1*
X3606838Y571509D2*
X3604892Y575356D1*
X3599188Y581104D1*
X3639336D1*
X3608739Y595400D2*
X3606838D1*
X3602991Y597302D1*
X3601090Y599203D1*
X3599188Y603050D1*
Y610699D1*
X3601090Y614502D1*
X3602991Y616403D1*
X3606838Y618348D1*
X3610640D1*
X3614487Y616403D1*
X3620191Y612600D1*
X3639336Y593455D1*
Y620250D1*
X3707138Y571509D2*
X3705192Y575356D1*
X3699488Y581104D1*
X3739636D1*
X3699488Y597302D2*
Y618304D1*
X3714787Y606852D1*
Y612600D1*
X3716688Y616403D1*
X3718589Y618304D1*
X3724338Y620250D1*
X3728140D1*
X3733888Y618304D1*
X3737735Y614501D1*
X3739636Y608753D1*
Y603005D1*
X3737735Y597302D1*
X3735789Y595400D1*
X3731987Y593455D1*
X3807013Y571509D2*
X3805067Y575356D1*
X3799363Y581104D1*
X3839511D1*
Y612600D2*
X3799363D1*
X3826114Y593455D1*
Y622151D1*
X3906888Y571509D2*
X3904942Y575356D1*
X3899238Y581104D1*
X3939386D1*
X3899238Y616403D2*
Y597302D1*
X3916438Y595400D1*
X3914537Y597302D1*
X3912591Y603050D1*
Y608754D1*
X3914537Y614502D1*
X3918339Y618348D1*
X3924088Y620250D1*
X3927890D1*
X3933638Y618348D1*
X3937485Y614501D1*
X3939386Y608753D1*
Y603050D1*
X3937485Y597302D1*
X3935539Y595400D1*
X3931737Y593455D1*
X4195587Y1812080D2*
X4216589D1*
X4205137Y1796781D1*
X4210885D1*
X4214688Y1794880D1*
X4216589Y1792978D1*
X4218535Y1787230D1*
Y1783428D1*
X4216589Y1777680D1*
X4212787Y1773833D1*
X4207039Y1771932D1*
X4201291D1*
X4195587Y1773833D1*
X4193685Y1775779D1*
X4191740Y1779581D1*
X4234733Y1812080D2*
X4255735D1*
X4244283Y1796781D1*
X4250031D1*
X4253834Y1794880D1*
X4255735Y1792978D1*
X4257681Y1787230D1*
Y1783428D1*
X4255735Y1777680D1*
X4251933Y1773833D1*
X4246185Y1771932D1*
X4240437D1*
X4234733Y1773833D1*
X4232832Y1775779D1*
X4230886Y1779581D1*
X4195587Y1709600D2*
X4216589D1*
X4205137Y1694301D1*
X4210885D1*
X4214688Y1692400D1*
X4216589Y1690498D1*
X4218535Y1684750D1*
Y1680948D1*
X4216589Y1675200D1*
X4212787Y1671353D1*
X4207039Y1669452D1*
X4201291D1*
X4195587Y1671353D1*
X4193685Y1673299D1*
X4191740Y1677101D1*
X4253834Y1709600D2*
X4234733D1*
X4232832Y1692400D1*
X4234733Y1694301D1*
X4240481Y1696246D1*
X4246185D1*
X4251933Y1694301D1*
X4255779Y1690498D1*
X4257681Y1684750D1*
Y1680948D1*
X4255779Y1675200D1*
X4251933Y1671353D1*
X4246185Y1669452D1*
X4240481D1*
X4234733Y1671353D1*
X4232832Y1673299D1*
X4230886Y1677101D1*
X4195587Y1611110D2*
X4216589D1*
X4205137Y1595811D1*
X4210885D1*
X4214688Y1593910D1*
X4216589Y1592008D1*
X4218535Y1586260D1*
Y1582458D1*
X4216589Y1576710D1*
X4212787Y1572863D1*
X4207039Y1570962D1*
X4201291D1*
X4195587Y1572863D1*
X4193685Y1574809D1*
X4191740Y1578611D1*
X4238535Y1570962D2*
X4257681Y1611110D1*
X4230886D1*
X4195587Y1512830D2*
X4216589D1*
X4205137Y1497531D1*
X4210885D1*
X4214688Y1495630D1*
X4216589Y1493728D1*
X4218535Y1487980D1*
Y1484178D1*
X4216589Y1478430D1*
X4212787Y1474583D1*
X4207039Y1472682D1*
X4201291D1*
X4195587Y1474583D1*
X4193685Y1476529D1*
X4191740Y1480331D1*
X4255779Y1499476D2*
X4253834Y1493728D1*
X4250031Y1489882D1*
X4244283Y1487980D1*
X4242382D1*
X4236634Y1489882D1*
X4232832Y1493728D1*
X4230886Y1499476D1*
Y1501378D1*
X4232832Y1507126D1*
X4236634Y1510928D1*
X4242382Y1512830D1*
X4244283D1*
X4250031Y1510928D1*
X4253834Y1507126D1*
X4255779Y1499476D1*
Y1489882D1*
X4253834Y1480331D1*
X4250031Y1474583D1*
X4244283Y1472682D1*
X4240481D1*
X4234733Y1474583D1*
X4232832Y1478430D1*
X4210885Y1374402D2*
Y1414550D1*
X4191740Y1387799D1*
X4220436D1*
X4232787Y1406900D2*
X4236634Y1408846D1*
X4242382Y1414550D1*
Y1374402D1*
X4210885Y1275912D2*
Y1316060D1*
X4191740Y1289309D1*
X4220436D1*
X4236634Y1316060D2*
X4257636D1*
X4246185Y1300761D1*
X4251933D1*
X4255735Y1298860D1*
X4257636Y1296958D1*
X4259582Y1291210D1*
Y1287408D1*
X4257636Y1281660D1*
X4253834Y1277813D1*
X4248086Y1275912D1*
X4242338D1*
X4236634Y1277813D1*
X4234733Y1279759D1*
X4232787Y1283561D1*
X4210885Y1173432D2*
Y1213580D1*
X4191740Y1186829D1*
X4220436D1*
X4255735Y1213580D2*
X4236634D1*
X4234733Y1196380D1*
X4236634Y1198281D1*
X4242382Y1200226D1*
X4248086D1*
X4253834Y1198281D1*
X4257681Y1194478D1*
X4259582Y1188730D1*
Y1184928D1*
X4257681Y1179180D1*
X4253834Y1175333D1*
X4248086Y1173432D1*
X4242382D1*
X4236634Y1175333D1*
X4234733Y1177279D1*
X4232787Y1181081D1*
X4210885Y1071162D2*
Y1111310D1*
X4191740Y1084559D1*
X4220436D1*
X4240437Y1071162D2*
X4259582Y1111310D1*
X4232787D1*
X4210885Y972672D2*
Y1012820D1*
X4191740Y986069D1*
X4220436D1*
X4257681Y999466D2*
X4255735Y993718D1*
X4251933Y989872D1*
X4246185Y987970D1*
X4244283D1*
X4238535Y989872D1*
X4234733Y993718D1*
X4232787Y999466D1*
Y1001368D1*
X4234733Y1007116D1*
X4238535Y1010918D1*
X4244283Y1012820D1*
X4246185D1*
X4251933Y1010918D1*
X4255735Y1007116D1*
X4257681Y999466D1*
Y989872D1*
X4255735Y980321D1*
X4251933Y974573D1*
X4246185Y972672D1*
X4242382D1*
X4236634Y974573D1*
X4234733Y978420D1*
X4214688Y914330D2*
X4195587D1*
X4193685Y897130D1*
X4195587Y899031D1*
X4201335Y900976D1*
X4207039D1*
X4212787Y899031D1*
X4216633Y895228D1*
X4218535Y889480D1*
Y885678D1*
X4216633Y879930D1*
X4212787Y876083D1*
X4207039Y874182D1*
X4201335D1*
X4195587Y876083D1*
X4193685Y878029D1*
X4191740Y881831D1*
X4230886Y906680D2*
X4234733Y908626D1*
X4240481Y914330D1*
Y874182D1*
X4214688Y816050D2*
X4195587D1*
X4193685Y798850D1*
X4195587Y800751D1*
X4201335Y802696D1*
X4207039D1*
X4212787Y800751D1*
X4216633Y796948D1*
X4218535Y791200D1*
Y787398D1*
X4216633Y781650D1*
X4212787Y777803D1*
X4207039Y775902D1*
X4201335D1*
X4195587Y777803D1*
X4193685Y779749D1*
X4191740Y783551D1*
X4234733Y816050D2*
X4255735D1*
X4244283Y800751D1*
X4250031D1*
X4253834Y798850D1*
X4255735Y796948D1*
X4257681Y791200D1*
Y787398D1*
X4255735Y781650D1*
X4251933Y777803D1*
X4246185Y775902D1*
X4240437D1*
X4234733Y777803D1*
X4232832Y779749D1*
X4230886Y783551D1*
X3884912Y1812080D2*
X3905914D1*
X3894462Y1796781D1*
X3900210D1*
X3904013Y1794880D1*
X3905914Y1792978D1*
X3907860Y1787230D1*
Y1783428D1*
X3905914Y1777680D1*
X3902112Y1773833D1*
X3896364Y1771932D1*
X3890616D1*
X3884912Y1773833D1*
X3883010Y1775779D1*
X3881065Y1779581D1*
X3922157Y1802529D2*
Y1804430D1*
X3924058Y1808277D1*
X3925959Y1810178D1*
X3929806Y1812080D1*
X3937455D1*
X3941258Y1810178D1*
X3943159Y1808277D1*
X3945104Y1804430D1*
Y1800628D1*
X3943159Y1796781D1*
X3939356Y1791077D1*
X3920211Y1771932D1*
X3947006D1*
X3884912Y1709600D2*
X3905914D1*
X3894462Y1694301D1*
X3900210D1*
X3904013Y1692400D1*
X3905914Y1690498D1*
X3907860Y1684750D1*
Y1680948D1*
X3905914Y1675200D1*
X3902112Y1671353D1*
X3896364Y1669452D1*
X3890616D1*
X3884912Y1671353D1*
X3883010Y1673299D1*
X3881065Y1677101D1*
X3939356Y1669452D2*
Y1709600D1*
X3920211Y1682849D1*
X3948907D1*
X3884912Y1611110D2*
X3905914D1*
X3894462Y1595811D1*
X3900210D1*
X3904013Y1593910D1*
X3905914Y1592008D1*
X3907860Y1586260D1*
Y1582458D1*
X3905914Y1576710D1*
X3902112Y1572863D1*
X3896364Y1570962D1*
X3890616D1*
X3884912Y1572863D1*
X3883010Y1574809D1*
X3881065Y1578611D1*
X3943159Y1605406D2*
X3941258Y1609208D1*
X3935510Y1611110D1*
X3931707D1*
X3925959Y1609208D1*
X3922112Y1603460D1*
X3920211Y1593910D1*
Y1584359D1*
X3922112Y1576710D1*
X3925959Y1572863D1*
X3931707Y1570962D1*
X3933608D1*
X3939312Y1572863D1*
X3943159Y1576710D1*
X3945060Y1582458D1*
Y1584359D1*
X3943159Y1590107D1*
X3939312Y1593910D1*
X3933608Y1595811D1*
X3931707D1*
X3925959Y1593910D1*
X3922112Y1590107D1*
X3920211Y1584359D1*
X3884912Y1512830D2*
X3905914D1*
X3894462Y1497531D1*
X3900210D1*
X3904013Y1495630D1*
X3905914Y1493728D1*
X3907860Y1487980D1*
Y1484178D1*
X3905914Y1478430D1*
X3902112Y1474583D1*
X3896364Y1472682D1*
X3890616D1*
X3884912Y1474583D1*
X3883010Y1476529D1*
X3881065Y1480331D1*
X3929762Y1512830D2*
X3924058Y1510928D1*
X3922112Y1507126D1*
Y1503279D1*
X3924058Y1499476D1*
X3927860Y1497531D1*
X3935510Y1495630D1*
X3941258Y1493728D1*
X3945060Y1489882D1*
X3946961Y1486079D1*
Y1480331D1*
X3945060Y1476529D1*
X3943159Y1474583D1*
X3937411Y1472682D1*
X3929762D1*
X3924058Y1474583D1*
X3922112Y1476529D1*
X3920211Y1480331D1*
Y1486079D1*
X3922112Y1489882D1*
X3925959Y1493728D1*
X3931663Y1495630D1*
X3939312Y1497531D1*
X3943159Y1499476D1*
X3945060Y1503279D1*
Y1507126D1*
X3943159Y1510928D1*
X3937411Y1512830D1*
X3929762D1*
X3900210Y1374402D2*
Y1414550D1*
X3881065Y1387799D1*
X3909761D1*
X3933608Y1414550D2*
X3927860Y1412648D1*
X3924014Y1406900D1*
X3922112Y1397350D1*
Y1391602D1*
X3924014Y1382051D1*
X3927860Y1376303D1*
X3933608Y1374402D1*
X3937411D1*
X3943159Y1376303D1*
X3946961Y1382051D1*
X3948907Y1391602D1*
Y1397350D1*
X3946961Y1406900D1*
X3943159Y1412648D1*
X3937411Y1414550D1*
X3933608D1*
X3946961Y1406900D2*
X3924014Y1382051D1*
X3900210Y1275912D2*
Y1316060D1*
X3881065Y1289309D1*
X3909761D1*
X3924058Y1306509D2*
Y1308410D1*
X3925959Y1312257D1*
X3927860Y1314158D1*
X3931707Y1316060D1*
X3939356D1*
X3943159Y1314158D1*
X3945060Y1312257D1*
X3947006Y1308410D1*
Y1304608D1*
X3945060Y1300761D1*
X3941258Y1295057D1*
X3922112Y1275912D1*
X3948907D1*
X3900210Y1173432D2*
Y1213580D1*
X3881065Y1186829D1*
X3909761D1*
X3941258Y1173432D2*
Y1213580D1*
X3922112Y1186829D1*
X3950808D1*
X3900210Y1071162D2*
Y1111310D1*
X3881065Y1084559D1*
X3909761D1*
X3945060Y1105606D2*
X3943159Y1109408D1*
X3937411Y1111310D1*
X3933608D1*
X3927860Y1109408D1*
X3924014Y1103660D1*
X3922112Y1094110D1*
Y1084559D1*
X3924014Y1076910D1*
X3927860Y1073063D1*
X3933608Y1071162D1*
X3935510D1*
X3941213Y1073063D1*
X3945060Y1076910D1*
X3946961Y1082658D1*
Y1084559D1*
X3945060Y1090307D1*
X3941213Y1094110D1*
X3935510Y1096011D1*
X3933608D1*
X3927860Y1094110D1*
X3924014Y1090307D1*
X3922112Y1084559D1*
X3900210Y972672D2*
Y1012820D1*
X3881065Y986069D1*
X3909761D1*
X3931663Y1012820D2*
X3925959Y1010918D1*
X3924014Y1007116D1*
Y1003269D1*
X3925959Y999466D1*
X3929762Y997521D1*
X3937411Y995620D1*
X3943159Y993718D1*
X3946961Y989872D1*
X3948863Y986069D1*
Y980321D1*
X3946961Y976519D1*
X3945060Y974573D1*
X3939312Y972672D1*
X3931663D1*
X3925959Y974573D1*
X3924014Y976519D1*
X3922112Y980321D1*
Y986069D1*
X3924014Y989872D1*
X3927860Y993718D1*
X3933564Y995620D1*
X3941213Y997521D1*
X3945060Y999466D1*
X3946961Y1003269D1*
Y1007116D1*
X3945060Y1010918D1*
X3939312Y1012820D1*
X3931663D1*
X3904013Y914330D2*
X3884912D1*
X3883010Y897130D1*
X3884912Y899031D1*
X3890660Y900976D1*
X3896364D1*
X3902112Y899031D1*
X3905958Y895228D1*
X3907860Y889480D1*
Y885678D1*
X3905958Y879930D1*
X3902112Y876083D1*
X3896364Y874182D1*
X3890660D1*
X3884912Y876083D1*
X3883010Y878029D1*
X3881065Y881831D1*
X3931707Y914330D2*
X3925959Y912428D1*
X3922112Y906680D1*
X3920211Y897130D1*
Y891382D1*
X3922112Y881831D1*
X3925959Y876083D1*
X3931707Y874182D1*
X3935510D1*
X3941258Y876083D1*
X3945060Y881831D1*
X3947006Y891382D1*
Y897130D1*
X3945060Y906680D1*
X3941258Y912428D1*
X3935510Y914330D1*
X3931707D1*
X3945060Y906680D2*
X3922112Y881831D1*
X3904013Y816050D2*
X3884912D1*
X3883010Y798850D1*
X3884912Y800751D1*
X3890660Y802696D1*
X3896364D1*
X3902112Y800751D1*
X3905958Y796948D1*
X3907860Y791200D1*
Y787398D1*
X3905958Y781650D1*
X3902112Y777803D1*
X3896364Y775902D1*
X3890660D1*
X3884912Y777803D1*
X3883010Y779749D1*
X3881065Y783551D1*
X3922157Y806499D2*
Y808400D1*
X3924058Y812247D1*
X3925959Y814148D1*
X3929806Y816050D1*
X3937455D1*
X3941258Y814148D1*
X3943159Y812247D1*
X3945104Y808400D1*
Y804598D1*
X3943159Y800751D1*
X3939356Y795047D1*
X3920211Y775902D1*
X3947006D1*
X3884912Y1914350D2*
X3905914D1*
X3894462Y1899051D1*
X3900210D1*
X3904013Y1897150D1*
X3905914Y1895248D1*
X3907860Y1889500D1*
Y1885698D1*
X3905914Y1879950D1*
X3902112Y1876103D1*
X3896364Y1874202D1*
X3890616D1*
X3884912Y1876103D1*
X3883010Y1878049D1*
X3881065Y1881851D1*
X3931707Y1914350D2*
X3925959Y1912448D1*
X3922112Y1906700D1*
X3920211Y1897150D1*
Y1891402D1*
X3922112Y1881851D1*
X3925959Y1876103D1*
X3931707Y1874202D1*
X3935510D1*
X3941258Y1876103D1*
X3945060Y1881851D1*
X3947006Y1891402D1*
Y1897150D1*
X3945060Y1906700D1*
X3941258Y1912448D1*
X3935510Y1914350D1*
X3931707D1*
X3945060Y1906700D2*
X3922112Y1881851D1*
X3883010Y2208039D2*
Y2209940D1*
X3884912Y2213787D1*
X3886813Y2215688D1*
X3890660Y2217590D1*
X3898309D1*
X3902112Y2215688D1*
X3904013Y2213787D1*
X3905958Y2209940D1*
Y2206138D1*
X3904013Y2202291D1*
X3900210Y2196587D1*
X3881065Y2177442D1*
X3907860D1*
X3939356D2*
Y2217590D1*
X3920211Y2190839D1*
X3948907D1*
X3883010Y2105559D2*
Y2107460D1*
X3884912Y2111307D1*
X3886813Y2113208D1*
X3890660Y2115110D1*
X3898309D1*
X3902112Y2113208D1*
X3904013Y2111307D1*
X3905958Y2107460D1*
Y2103658D1*
X3904013Y2099811D1*
X3900210Y2094107D1*
X3881065Y2074962D1*
X3907860D1*
X3943159Y2109406D2*
X3941258Y2113208D1*
X3935510Y2115110D1*
X3931707D1*
X3925959Y2113208D1*
X3922112Y2107460D1*
X3920211Y2097910D1*
Y2088359D1*
X3922112Y2080710D1*
X3925959Y2076863D1*
X3931707Y2074962D1*
X3933608D1*
X3939312Y2076863D1*
X3943159Y2080710D1*
X3945060Y2086458D1*
Y2088359D1*
X3943159Y2094107D1*
X3939312Y2097910D1*
X3933608Y2099811D1*
X3931707D1*
X3925959Y2097910D1*
X3922112Y2094107D1*
X3920211Y2088359D1*
X3883010Y2007069D2*
Y2008970D1*
X3884912Y2012817D1*
X3886813Y2014718D1*
X3890660Y2016620D1*
X3898309D1*
X3902112Y2014718D1*
X3904013Y2012817D1*
X3905958Y2008970D1*
Y2005168D1*
X3904013Y2001321D1*
X3900210Y1995617D1*
X3881065Y1976472D1*
X3907860D1*
X3929762Y2016620D2*
X3924058Y2014718D1*
X3922112Y2010916D1*
Y2007069D1*
X3924058Y2003266D1*
X3927860Y2001321D1*
X3935510Y1999420D1*
X3941258Y1997518D1*
X3945060Y1993672D1*
X3946961Y1989869D1*
Y1984121D1*
X3945060Y1980319D1*
X3943159Y1978373D1*
X3937411Y1976472D1*
X3929762D1*
X3924058Y1978373D1*
X3922112Y1980319D1*
X3920211Y1984121D1*
Y1989869D1*
X3922112Y1993672D1*
X3925959Y1997518D1*
X3931663Y1999420D1*
X3939312Y2001321D1*
X3943159Y2003266D1*
X3945060Y2007069D1*
Y2010916D1*
X3943159Y2014718D1*
X3937411Y2016620D1*
X3929762D1*
X3883010Y2310309D2*
Y2312210D1*
X3884912Y2316057D1*
X3886813Y2317958D1*
X3890660Y2319860D1*
X3898309D1*
X3902112Y2317958D1*
X3904013Y2316057D1*
X3905958Y2312210D1*
Y2308408D1*
X3904013Y2304561D1*
X3900210Y2298857D1*
X3881065Y2279712D1*
X3907860D1*
X3922157Y2310309D2*
Y2312210D1*
X3924058Y2316057D1*
X3925959Y2317958D1*
X3929806Y2319860D1*
X3937455D1*
X3941258Y2317958D1*
X3943159Y2316057D1*
X3945104Y2312210D1*
Y2308408D1*
X3943159Y2304561D1*
X3939356Y2298857D1*
X3920211Y2279712D1*
X3947006D1*
X4195587Y1914350D2*
X4216589D1*
X4205137Y1899051D1*
X4210885D1*
X4214688Y1897150D1*
X4216589Y1895248D1*
X4218535Y1889500D1*
Y1885698D1*
X4216589Y1879950D1*
X4212787Y1876103D1*
X4207039Y1874202D1*
X4201291D1*
X4195587Y1876103D1*
X4193685Y1878049D1*
X4191740Y1881851D1*
X4230886Y1906700D2*
X4234733Y1908646D1*
X4240481Y1914350D1*
Y1874202D1*
M02*
